<?xml version="1.0" encoding="UTF-8" standalone="no"?>
<!-- Created with Inkscape (http://www.inkscape.org/) -->

<svg
   xmlns:dc="http://purl.org/dc/elements/1.1/"
   xmlns:cc="http://creativecommons.org/ns#"
   xmlns:rdf="http://www.w3.org/1999/02/22-rdf-syntax-ns#"
   xmlns:svg="http://www.w3.org/2000/svg"
   xmlns="http://www.w3.org/2000/svg"
   xmlns:sodipodi="http://sodipodi.sourceforge.net/DTD/sodipodi-0.dtd"
   xmlns:inkscape="http://www.inkscape.org/namespaces/inkscape"
   width="146.5928mm"
   height="62.171192mm"
   viewBox="0 0 146.5928 62.171192"
   version="1.1"
   id="svg8"
   inkscape:version="0.92.5 (2060ec1f9f, 2020-04-08)"
   sodipodi:docname="prior.svg">
  <defs
     id="defs2" />
  <sodipodi:namedview
     id="base"
     pagecolor="#494949"
     bordercolor="#666666"
     borderopacity="1.0"
     inkscape:pageopacity="0"
     inkscape:pageshadow="2"
     inkscape:zoom="1.4"
     inkscape:cx="193.04945"
     inkscape:cy="16.6236"
     inkscape:document-units="mm"
     inkscape:current-layer="layer1"
     showgrid="false"
     inkscape:snap-global="false"
     inkscape:snap-bbox="true"
     inkscape:snap-bbox-midpoints="true"
     inkscape:bbox-paths="true"
     inkscape:window-width="1920"
     inkscape:window-height="1013"
     inkscape:window-x="1920"
     inkscape:window-y="0"
     inkscape:window-maximized="1"
     inkscape:object-paths="true"
     inkscape:snap-nodes="false"
     fit-margin-top="1"
     fit-margin-left="1"
     fit-margin-bottom="1"
     fit-margin-right="1" />
  <metadata
     id="metadata5">
    <rdf:RDF>
      <cc:Work
         rdf:about="">
        <dc:format>image/svg+xml</dc:format>
        <dc:type
           rdf:resource="http://purl.org/dc/dcmitype/StillImage" />
        <dc:title></dc:title>
      </cc:Work>
    </rdf:RDF>
  </metadata>
  <g
     inkscape:label="Layer 1"
     inkscape:groupmode="layer"
     id="layer1"
     transform="translate(-1.0451592,-70.027557)">
    <path
       style="opacity:1;fill:none;fill-opacity:1;stroke:#ffffff;stroke-width:0.35277778;stroke-linecap:square;stroke-miterlimit:4;stroke-dasharray:none;stroke-dashoffset:0;stroke-opacity:1"
       id="path815"
       sodipodi:type="arc"
       sodipodi:cx="-74.745392"
       sodipodi:cy="-130.92534"
       sodipodi:rx="34.206848"
       sodipodi:ry="34.206848"
       sodipodi:start="0"
       sodipodi:end="3.1415927"
       sodipodi:open="true"
       d="m -40.538544,-130.92534 a 34.206848,34.206848 0 0 1 -17.103424,29.624 34.206848,34.206848 0 0 1 -34.206849,0 34.206848,34.206848 0 0 1 -17.103423,-29.624"
       transform="scale(-1)" />
    <path
       style="fill:none;stroke:#ffffff;stroke-width:0.26499999;stroke-linecap:butt;stroke-linejoin:miter;stroke-miterlimit:4;stroke-dasharray:0.26499999, 0.26499999000000002;stroke-dashoffset:0;stroke-opacity:1"
       d="M 12.067767,131.06625 H 140.08987"
       id="path817"
       inkscape:connector-curvature="0" />
    <path
       inkscape:connector-curvature="0"
       id="path819"
       d="M 2.0451592,96.447614 H 146.63797"
       style="fill:#fffff6;stroke:#ffffff;stroke-width:0.23002882;stroke-linecap:butt;stroke-linejoin:miter;stroke-miterlimit:4;stroke-dasharray:none;stroke-dashoffset:0;stroke-opacity:1;fill-opacity:1"
       sodipodi:nodetypes="cc" />
    <g
       id="g842"
       transform="matrix(0.3655989,0,0,0.3655989,-27.249663,63.886235)"
       style="fill:#fffff6;fill-opacity:1">
      <g
         word-spacing="normal"
         letter-spacing="normal"
         font-size-adjust="none"
         font-stretch="normal"
         font-weight="normal"
         font-variant="normal"
         font-style="normal"
         stroke-miterlimit="10.433"
         xml:space="preserve"
         transform="matrix(0.3,0,0,-0.3,-52.5,222.75)"
         id="content"
         style="font-style:normal;font-variant:normal;font-weight:normal;font-stretch:normal;letter-spacing:normal;word-spacing:normal;text-anchor:start;fill:#fffff6;fill-opacity:1;fill-rule:evenodd;stroke:#000000;stroke-linecap:butt;stroke-linejoin:miter;stroke-miterlimit:10.43299961;stroke-dasharray:none;stroke-dashoffset:0;stroke-opacity:1"><path
           id="path827"
           d="m 462.14,410.34 0.25,0.27 0.24,0.25 0.24,0.25 0.23,0.24 0.22,0.23 0.22,0.22 0.21,0.22 0.2,0.21 0.2,0.2 0.2,0.19 0.19,0.19 0.19,0.19 0.18,0.17 0.19,0.18 0.35,0.33 0.34,0.32 0.33,0.3 0.33,0.29 0.32,0.29 0.65,0.56 0.33,0.29 0.33,0.28 c 0,0.05 3.08,2.69 4.88,4.49 4.73,4.64 5.83,7.03 5.83,7.21 0,0.5 -0.46,0.5 -0.55,0.5 -0.35,0 -0.5,-0.09 -0.75,-0.54 -1.49,-2.39 -2.53,-3.19 -3.74,-3.19 -1.2,0 -1.79,0.75 -2.54,1.59 -0.94,1.16 -1.78,2.14 -3.44,2.14 -3.73,0 -6.02,-4.62 -6.02,-5.67 0,-0.25 0.14,-0.54 0.6,-0.54 0.45,0 0.54,0.25 0.64,0.54 0.95,2.3 3.84,2.35 4.23,2.35 1.05,0 2,-0.36 3.14,-0.75 2,-0.75 2.55,-0.75 3.85,-0.75 -1.8,-2.14 -5.99,-5.74 -6.92,-6.53 l -4.49,-4.18 c -3.39,-3.34 -5.14,-6.18 -5.14,-6.53 0,-0.5 0.5,-0.5 0.59,-0.5 0.41,0 0.5,0.1 0.8,0.64 1.16,1.75 2.64,3.1 4.24,3.1 1.15,0 1.65,-0.46 2.89,-1.89 0.86,-1.05 1.75,-1.85 3.18,-1.85 4.94,0 7.83,6.33 7.83,7.67 0,0.25 -0.2,0.5 -0.59,0.5 -0.46,0 -0.55,-0.29 -0.71,-0.65 -1.14,-3.24 -4.32,-4.17 -5.98,-4.17 -0.98,0 -1.89,0.29 -2.94,0.64 -1.68,0.64 -2.43,0.84 -3.48,0.84 -0.1,0 -0.89,0 -1.35,-0.14 z"
           inkscape:connector-curvature="0"
           style="fill:#fffff6;stroke-width:0;fill-opacity:1" /><path
           id="path829"
           d="m 528.99,422.5 h 0.14 0.15 0.14 l 0.07,0.01 h 0.08 l 0.07,0.01 0.07,0.01 0.07,0.01 0.07,0.01 0.07,0.01 0.06,0.02 0.07,0.02 0.06,0.02 0.06,0.02 0.06,0.03 0.06,0.03 0.05,0.04 0.05,0.03 0.05,0.05 0.04,0.04 0.04,0.05 0.02,0.03 0.02,0.03 0.01,0.02 0.02,0.03 0.01,0.03 0.01,0.04 0.02,0.03 0.01,0.04 0.01,0.03 0.01,0.04 v 0.04 l 0.01,0.04 v 0.04 l 0.01,0.04 v 0.04 0.05 c 0,1 -0.95,1 -1.64,1 H 499.2 c -0.71,0 -1.65,0 -1.65,-1 0,-0.98 0.94,-0.98 1.69,-0.98 z"
           inkscape:connector-curvature="0"
           style="fill:#fffff6;stroke-width:0;fill-opacity:1" /><path
           id="path831"
           d="m 529.04,412.82 h 0.06 0.07 l 0.14,0.01 h 0.14 0.07 l 0.07,0.01 0.07,0.01 h 0.06 l 0.07,0.01 0.07,0.02 0.07,0.01 0.06,0.02 0.07,0.02 0.06,0.02 0.06,0.02 0.05,0.03 0.06,0.03 0.05,0.04 0.05,0.04 0.05,0.04 0.04,0.05 0.02,0.02 0.02,0.03 0.02,0.02 0.02,0.03 0.01,0.03 0.02,0.03 0.01,0.03 0.01,0.03 0.02,0.04 0.01,0.03 0.01,0.04 0.01,0.04 v 0.04 l 0.01,0.04 v 0.04 l 0.01,0.04 v 0.05 0.04 c 0,1 -0.95,1 -1.69,1 h -29.75 c -0.75,0 -1.69,0 -1.69,-1 0,-1 0.94,-1 1.65,-1 z"
           inkscape:connector-curvature="0"
           style="fill:#fffff6;stroke-width:0;fill-opacity:1" /><path
           id="path833"
           d="m 553.94,410.34 0.25,0.27 0.24,0.25 0.23,0.25 0.23,0.24 0.22,0.23 0.22,0.22 0.21,0.22 0.21,0.21 0.2,0.2 0.19,0.19 0.2,0.19 0.18,0.19 0.19,0.17 0.18,0.18 0.35,0.33 0.34,0.32 0.34,0.3 0.32,0.29 0.33,0.29 0.64,0.56 0.33,0.29 0.34,0.28 c 0,0.05 3.07,2.69 4.87,4.49 4.73,4.64 5.83,7.03 5.83,7.21 0,0.5 -0.46,0.5 -0.55,0.5 -0.34,0 -0.5,-0.09 -0.75,-0.54 -1.48,-2.39 -2.53,-3.19 -3.73,-3.19 -1.21,0 -1.8,0.75 -2.55,1.59 -0.94,1.16 -1.78,2.14 -3.44,2.14 -3.73,0 -6.01,-4.62 -6.01,-5.67 0,-0.25 0.14,-0.54 0.59,-0.54 0.45,0 0.55,0.25 0.64,0.54 0.95,2.3 3.84,2.35 4.24,2.35 1.04,0 2,-0.36 3.14,-0.75 2,-0.75 2.54,-0.75 3.84,-0.75 -1.8,-2.14 -5.98,-5.74 -6.92,-6.53 l -4.49,-4.18 c -3.39,-3.34 -5.14,-6.18 -5.14,-6.53 0,-0.5 0.5,-0.5 0.6,-0.5 0.4,0 0.5,0.1 0.79,0.64 1.16,1.75 2.64,3.1 4.24,3.1 1.15,0 1.65,-0.46 2.89,-1.89 0.86,-1.05 1.75,-1.85 3.19,-1.85 4.93,0 7.82,6.33 7.82,7.67 0,0.25 -0.2,0.5 -0.59,0.5 -0.45,0 -0.55,-0.29 -0.7,-0.65 -1.14,-3.24 -4.33,-4.17 -5.99,-4.17 -0.98,0 -1.89,0.29 -2.93,0.64 -1.69,0.64 -2.44,0.84 -3.49,0.84 -0.09,0 -0.89,0 -1.34,-0.14 z"
           inkscape:connector-curvature="0"
           style="fill:#fffff6;stroke-width:0;fill-opacity:1" /><path
           id="path835"
           d="m 599.12,409.32 v 0.28 l -0.02,0.28 -0.02,0.26 -0.03,0.26 -0.04,0.25 -0.05,0.24 -0.06,0.24 -0.07,0.22 -0.08,0.22 -0.09,0.21 -0.1,0.2 -0.11,0.19 -0.12,0.19 -0.13,0.17 -0.14,0.17 -0.15,0.16 -0.17,0.15 -0.17,0.14 -0.19,0.13 -0.19,0.12 -0.21,0.12 -0.22,0.1 -0.23,0.09 -0.24,0.09 -0.26,0.07 -0.27,0.07 -0.27,0.05 -0.3,0.05 -0.3,0.03 -0.32,0.03 -0.33,0.02 h -0.34 c -2.76,0 -4.64,-1.48 -5.58,-3.23 -0.7,2.47 -2.57,3.23 -5.12,3.23 -2.86,0 -4.7,-1.56 -5.69,-3.37 h -0.03 v 3.37 l -5.13,-0.37 v -1.25 c 2.35,0 2.63,-0.25 2.63,-1.96 v -9.03 c 0,-1.5 -0.36,-1.5 -2.63,-1.5 v -1.25 c 0.08,0 2.52,0.14 3.99,0.14 1.28,0 3.69,-0.11 4,-0.14 v 1.25 c -2.27,0 -2.61,0 -2.61,1.5 v 6.28 c 0,3.66 2.89,5.36 5.19,5.36 2.43,0 2.75,-1.92 2.75,-3.69 v -7.95 c 0,-1.5 -0.35,-1.5 -2.61,-1.5 v -1.25 c 0.08,0 2.51,0.14 3.97,0.14 1.29,0 3.7,-0.11 4.01,-0.14 v 1.25 c -2.26,0 -2.62,0 -2.62,1.5 v 6.28 c 0,3.66 2.9,5.36 5.2,5.36 2.44,0 2.75,-1.92 2.75,-3.69 v -7.95 c 0,-1.5 -0.34,-1.5 -2.61,-1.5 v -1.25 c 0.06,0 2.5,0.14 3.97,0.14 1.28,0 3.69,-0.11 4,-0.14 v 1.25 c -2.26,0 -2.61,0 -2.61,1.5 z"
           inkscape:connector-curvature="0"
           style="fill:#fffff6;stroke-width:0;fill-opacity:1" /><path
           id="path837"
           d="m 618.78,408.11 v 0.33 0.33 l -0.01,0.32 -0.01,0.31 -0.01,0.15 -0.01,0.15 -0.02,0.14 -0.02,0.15 -0.02,0.14 -0.03,0.14 -0.03,0.14 -0.04,0.13 -0.04,0.14 -0.04,0.13 -0.05,0.13 -0.06,0.13 -0.06,0.13 -0.07,0.13 -0.07,0.13 -0.08,0.12 -0.09,0.13 -0.1,0.12 -0.1,0.12 -0.11,0.13 -0.12,0.12 -0.13,0.12 -0.14,0.12 -0.14,0.12 c -1.43,1.19 -3.1,1.75 -5.16,1.75 -3.31,0 -5.64,-1.27 -5.64,-3.39 0,-1.11 0.77,-1.71 1.67,-1.71 0.94,0 1.64,0.71 1.64,1.65 0,0.59 -0.28,1.32 -1.22,1.59 1.25,0.87 3.27,0.87 3.49,0.87 1.94,0 4.06,-1.28 4.06,-4.21 v -1.08 -0.91 -3.45 c 0,-3.35 -2.92,-4.28 -4.49,-4.28 -1.78,0 -3.45,1.18 -3.45,2.89 0,1.92 1.67,4.61 7.94,4.84 v 0.91 c -1.91,-0.07 -4.2,-0.17 -6.75,-1.11 -3.14,-1.16 -4.11,-3.06 -4.11,-4.64 0,-3 3.62,-3.86 6.09,-3.86 2.78,0 4.43,1.56 5.16,2.92 0.14,-1.42 1.08,-2.75 2.69,-2.75 0.06,0 3.43,0 3.43,3.31 v 1.91 h -1.17 v -1.88 c 0,-0.34 0,-2.01 -1.29,-2.01 -1.29,0 -1.29,1.62 -1.29,2.08 z"
           inkscape:connector-curvature="0"
           style="fill:#fffff6;stroke-width:0;fill-opacity:1" /><path
           id="path839"
           d="m 634.85,406.57 v 0.01 h -0.01 v 0 0 0.01 h -0.01 v 0 0.01 h -0.01 v 0.01 h -0.01 l -0.01,0.02 -0.01,0.01 -0.01,0.01 -0.01,0.01 -0.01,0.01 -0.02,0.02 -0.01,0.01 -0.01,0.02 -0.03,0.03 -0.02,0.03 -0.01,0.01 -0.01,0.01 -0.01,0.02 -0.02,0.01 -0.01,0.01 v 0.02 l -0.01,0.01 -0.01,0.01 v 0 l -0.01,0.01 v 0 0.01 h -0.01 v 0 0.01 0 0 0 0.01 0 c 0,0.11 2.29,2.58 2.61,2.89 1.22,1.36 2.43,2.69 5.2,2.72 v 1.25 c -0.98,-0.07 -1.98,-0.14 -2.94,-0.14 -1.04,0 -2.41,0.03 -3.44,0.14 v -1.25 c 0.58,-0.11 0.69,-0.49 0.69,-0.8 0,-0.08 0,-0.59 -0.51,-1.19 l -2.44,-2.75 -2.89,3.3 c -0.36,0.39 -0.39,0.56 -0.39,0.7 0,0.52 0.48,0.74 0.94,0.74 v 1.25 c -1.29,-0.11 -2.62,-0.14 -3.91,-0.14 -1.03,0 -2.36,0.03 -3.38,0.14 v -1.25 c 1.61,0 2.52,0 3.42,-1.05 l 4.35,-5.02 c 0.05,-0.03 0.28,-0.31 0.28,-0.34 0,-0.11 -2.61,-2.97 -2.95,-3.36 -1.3,-1.39 -2.49,-2.67 -5.27,-2.75 v -1.25 c 1.05,0.06 1.81,0.14 2.89,0.14 1.05,0 2.44,-0.03 3.49,-0.14 v 1.25 c -0.42,0.08 -0.71,0.31 -0.71,0.81 0,0.66 0.39,1.11 0.96,1.71 l 2.43,2.68 3.03,-3.45 c 0.66,-0.73 0.66,-0.81 0.66,-1.01 0,-0.69 -0.79,-0.74 -0.94,-0.74 v -1.25 c 0.32,0.03 2.83,0.14 3.94,0.14 1.11,0 2.24,-0.03 3.34,-0.14 v 1.25 c -2.32,0 -2.6,0.22 -3.42,1.13 z"
           inkscape:connector-curvature="0"
           style="fill:#fffff6;stroke-width:0;fill-opacity:1" /></g>    </g>
    <g
       id="g933"
       transform="matrix(0.32428943,0,0,0.32428943,-14.831873,95.29624)"
       style="fill:#fffff6;fill-opacity:1">
      <g
         word-spacing="normal"
         letter-spacing="normal"
         font-size-adjust="none"
         font-stretch="normal"
         font-weight="normal"
         font-variant="normal"
         font-style="normal"
         stroke-miterlimit="10.433"
         xml:space="preserve"
         transform="matrix(0.3,0,0,-0.3,-52.5,222.75)"
         id="g931"
         style="font-style:normal;font-variant:normal;font-weight:normal;font-stretch:normal;letter-spacing:normal;word-spacing:normal;text-anchor:start;fill:#fffff6;fill-opacity:1;fill-rule:evenodd;stroke:#000000;stroke-linecap:butt;stroke-linejoin:miter;stroke-miterlimit:10.43299961;stroke-dasharray:none;stroke-dashoffset:0;stroke-opacity:1"><path
           id="path923"
           d="m 462.14,410.34 0.25,0.27 0.24,0.25 0.24,0.25 0.23,0.24 0.22,0.23 0.22,0.22 0.21,0.22 0.2,0.21 0.2,0.2 0.2,0.19 0.19,0.19 0.19,0.19 0.18,0.17 0.19,0.18 0.35,0.33 0.34,0.32 0.33,0.3 0.33,0.29 0.32,0.29 0.65,0.56 0.33,0.29 0.33,0.28 c 0,0.05 3.08,2.69 4.88,4.49 4.73,4.64 5.83,7.03 5.83,7.21 0,0.5 -0.46,0.5 -0.55,0.5 -0.35,0 -0.5,-0.09 -0.75,-0.54 -1.49,-2.39 -2.53,-3.19 -3.74,-3.19 -1.2,0 -1.79,0.75 -2.54,1.59 -0.94,1.16 -1.78,2.14 -3.44,2.14 -3.73,0 -6.02,-4.62 -6.02,-5.67 0,-0.25 0.14,-0.54 0.6,-0.54 0.45,0 0.54,0.25 0.64,0.54 0.95,2.3 3.84,2.35 4.23,2.35 1.05,0 2,-0.36 3.14,-0.75 2,-0.75 2.55,-0.75 3.85,-0.75 -1.8,-2.14 -5.99,-5.74 -6.92,-6.53 l -4.49,-4.18 c -3.39,-3.34 -5.14,-6.18 -5.14,-6.53 0,-0.5 0.5,-0.5 0.59,-0.5 0.41,0 0.5,0.1 0.8,0.64 1.16,1.75 2.64,3.1 4.24,3.1 1.15,0 1.65,-0.46 2.89,-1.89 0.86,-1.05 1.75,-1.85 3.18,-1.85 4.94,0 7.83,6.33 7.83,7.67 0,0.25 -0.2,0.5 -0.59,0.5 -0.46,0 -0.55,-0.29 -0.71,-0.65 -1.14,-3.24 -4.32,-4.17 -5.98,-4.17 -0.98,0 -1.89,0.29 -2.94,0.64 -1.68,0.64 -2.43,0.84 -3.48,0.84 -0.1,0 -0.89,0 -1.35,-0.14 z"
           inkscape:connector-curvature="0"
           style="fill:#fffff6;stroke-width:0;fill-opacity:1" /><path
           id="path925"
           d="m 528.99,422.5 h 0.14 0.15 0.14 l 0.07,0.01 h 0.08 l 0.07,0.01 0.07,0.01 0.07,0.01 0.07,0.01 0.07,0.01 0.06,0.02 0.07,0.02 0.06,0.02 0.06,0.02 0.06,0.03 0.06,0.03 0.05,0.04 0.05,0.03 0.05,0.05 0.04,0.04 0.04,0.05 0.02,0.03 0.02,0.03 0.01,0.02 0.02,0.03 0.01,0.03 0.01,0.04 0.02,0.03 0.01,0.04 0.01,0.03 0.01,0.04 v 0.04 l 0.01,0.04 v 0.04 l 0.01,0.04 v 0.04 0.05 c 0,1 -0.95,1 -1.64,1 H 499.2 c -0.71,0 -1.65,0 -1.65,-1 0,-0.98 0.94,-0.98 1.69,-0.98 z"
           inkscape:connector-curvature="0"
           style="fill:#fffff6;stroke-width:0;fill-opacity:1" /><path
           id="path927"
           d="m 529.04,412.82 h 0.06 0.07 l 0.14,0.01 h 0.14 0.07 l 0.07,0.01 0.07,0.01 h 0.06 l 0.07,0.01 0.07,0.02 0.07,0.01 0.06,0.02 0.07,0.02 0.06,0.02 0.06,0.02 0.05,0.03 0.06,0.03 0.05,0.04 0.05,0.04 0.05,0.04 0.04,0.05 0.02,0.02 0.02,0.03 0.02,0.02 0.02,0.03 0.01,0.03 0.02,0.03 0.01,0.03 0.01,0.03 0.02,0.04 0.01,0.03 0.01,0.04 0.01,0.04 v 0.04 l 0.01,0.04 v 0.04 l 0.01,0.04 v 0.05 0.04 c 0,1 -0.95,1 -1.69,1 h -29.75 c -0.75,0 -1.69,0 -1.69,-1 0,-1 0.94,-1 1.65,-1 z"
           inkscape:connector-curvature="0"
           style="fill:#fffff6;stroke-width:0;fill-opacity:1" /><path
           id="path929"
           d="m 570.23,422.14 v 0.74 l -0.01,0.75 -0.02,0.75 -0.03,0.74 -0.05,0.75 -0.06,0.74 -0.07,0.74 -0.1,0.73 -0.12,0.73 -0.13,0.73 -0.17,0.72 -0.19,0.72 -0.21,0.72 -0.25,0.7 -0.28,0.7 -0.15,0.35 -0.16,0.34 c -2.28,4.8 -6.37,5.6 -8.46,5.6 -2.99,0 -6.63,-1.3 -8.68,-5.94 -1.59,-3.44 -1.84,-7.33 -1.84,-11.31 0,-3.74 0.2,-8.22 2.25,-12 2.14,-4.03 5.78,-5.03 8.22,-5.03 v 1.09 c -1.94,0 -4.89,1.25 -5.78,6.03 -0.55,2.98 -0.55,7.56 -0.55,10.52 0,3.18 0,6.46 0.41,9.15 0.93,5.94 4.67,6.38 5.92,6.38 1.64,0 4.94,-0.89 5.87,-5.83 0.5,-2.78 0.5,-6.58 0.5,-9.7 0,-3.75 0,-7.13 -0.54,-10.32 -0.75,-4.73 -3.6,-6.23 -5.83,-6.23 v 0 -1.09 c 2.69,0 6.47,1.04 8.67,5.78 1.59,3.43 1.84,7.31 1.84,11.25 z"
           inkscape:connector-curvature="0"
           style="fill:#fffff6;stroke-width:0;fill-opacity:1" /></g>    </g>
    <path
       style="fill:none;stroke:#ffffff;stroke-width:0.26458332px;stroke-linecap:butt;stroke-linejoin:miter;stroke-opacity:1"
       d="M 74.652051,131.06625 39.878242,96.447614"
       id="path943"
       inkscape:connector-curvature="0" />
    <g
       id="g1035"
       transform="matrix(0.24140122,0,0,0.24140122,12.240545,83.807145)"
       style="fill:#fffff6;fill-opacity:1">
      <g
         word-spacing="normal"
         letter-spacing="normal"
         font-size-adjust="none"
         font-stretch="normal"
         font-weight="normal"
         font-variant="normal"
         font-style="normal"
         stroke-miterlimit="10.433"
         xml:space="preserve"
         transform="matrix(0.3,0,0,-0.3,-52.5,222.75)"
         id="g1033"
         style="font-style:normal;font-variant:normal;font-weight:normal;font-stretch:normal;letter-spacing:normal;word-spacing:normal;text-anchor:start;fill:#fffff6;fill-opacity:1;fill-rule:evenodd;stroke:#000000;stroke-linecap:butt;stroke-linejoin:miter;stroke-miterlimit:10.43299961;stroke-dasharray:none;stroke-dashoffset:0;stroke-opacity:1"><path
           id="path1019"
           d="m 479.48,438.73 -0.8,0.75 c 0,-0.05 -1.89,-2.39 -4.07,-2.39 -1.15,0 -2.4,0.75 -3.24,1.25 -1.34,0.8 -2.25,1.14 -3.09,1.14 -1.89,0 -2.85,-1.09 -5.38,-3.89 l 0.8,-0.75 c 0,0.06 1.89,2.39 4.08,2.39 1.14,0 2.39,-0.73 3.23,-1.23 1.35,-0.8 2.25,-1.16 3.1,-1.16 1.89,0 2.84,1.11 5.37,3.89 z"
           inkscape:connector-curvature="0"
           style="fill:#fffff6;stroke-width:0;fill-opacity:1" /><path
           id="path1021"
           d="m 472.16,421.25 0.03,0.13 0.03,0.15 0.04,0.16 0.05,0.18 0.05,0.19 0.06,0.21 0.07,0.22 0.07,0.22 0.08,0.23 0.09,0.24 0.09,0.25 0.11,0.24 0.11,0.25 0.12,0.25 0.13,0.25 0.13,0.25 0.15,0.24 0.16,0.24 0.16,0.23 0.18,0.22 0.19,0.22 0.2,0.2 0.21,0.19 0.22,0.18 0.23,0.16 0.24,0.14 0.13,0.07 0.13,0.06 0.13,0.05 0.14,0.05 0.14,0.05 0.14,0.04 0.15,0.03 0.15,0.03 0.15,0.02 0.15,0.02 0.16,0.01 h 0.16 c 0.25,0 1.44,0 2.49,-0.64 -1.39,-0.25 -2.39,-1.5 -2.39,-2.69 0,-0.79 0.54,-1.75 1.89,-1.75 1.09,0 2.69,0.89 2.69,2.89 0,2.6 -2.94,3.28 -4.63,3.28 -2.89,0 -4.64,-2.64 -5.23,-3.78 -1.25,3.28 -3.94,3.78 -5.38,3.78 -5.19,0 -8.03,-6.42 -8.03,-7.67 0,-0.5 0.5,-0.5 0.61,-0.5 0.39,0 0.55,0.11 0.64,0.55 1.69,5.28 4.98,6.53 6.67,6.53 0.96,0 2.69,-0.44 2.69,-3.33 0,-1.54 -0.84,-4.89 -2.69,-11.86 -0.8,-3.09 -2.53,-5.18 -4.73,-5.18 -0.3,0 -1.44,0 -2.49,0.65 1.25,0.24 2.35,1.28 2.35,2.69 0,1.34 -1.1,1.73 -1.85,1.73 -1.5,0 -2.75,-1.29 -2.75,-2.89 0,-2.28 2.5,-3.28 4.69,-3.28 3.3,0 5.08,3.49 5.24,3.78 0.59,-1.84 2.39,-3.78 5.37,-3.78 5.14,0 7.98,6.42 7.98,7.67 0,0.5 -0.45,0.5 -0.61,0.5 -0.43,0 -0.54,-0.2 -0.64,-0.54 -1.64,-5.33 -5.03,-6.53 -6.62,-6.53 -1.95,0 -2.75,1.59 -2.75,3.29 0,1.1 0.3,2.19 0.86,4.38 z"
           inkscape:connector-curvature="0"
           style="fill:#fffff6;stroke-width:0;fill-opacity:1" /><path
           id="path1023"
           d="m 533.84,422.84 v 0.1 0.1 0.09 l -0.01,0.09 -0.01,0.09 -0.01,0.08 -0.01,0.08 -0.01,0.08 -0.01,0.07 -0.02,0.07 -0.01,0.07 -0.02,0.07 -0.02,0.06 -0.02,0.05 -0.02,0.06 -0.02,0.05 -0.03,0.04 -0.02,0.05 -0.03,0.04 -0.02,0.04 -0.03,0.03 -0.03,0.03 -0.03,0.03 -0.03,0.03 -0.03,0.02 -0.04,0.02 -0.03,0.02 -0.03,0.01 -0.04,0.01 -0.03,0.01 h -0.04 -0.03 c -0.25,0 -0.66,-0.34 -0.71,-1.29 -0.2,-4.78 -3.48,-7.52 -6.98,-7.52 -3.13,0 -5.52,2.14 -7.97,4.28 -2.53,2.3 -5.12,4.58 -8.52,4.58 -5.43,0 -8.37,-5.48 -8.37,-10.02 0,-1.59 0.66,-1.59 0.7,-1.59 0.55,0 0.71,1 0.71,1.16 0.18,5.47 3.93,7.67 6.96,7.67 3.14,0 5.54,-2.14 7.97,-4.3 2.55,-2.28 5.14,-4.58 8.52,-4.58 5.44,0 8.37,5.49 8.37,10.02 z"
           inkscape:connector-curvature="0"
           style="fill:#fffff6;stroke-width:0;fill-opacity:1" /><path
           id="path1025"
           d="m 575,420.95 -0.11,-0.4 -0.11,-0.41 -0.24,-0.85 -0.23,-0.88 -0.25,-0.91 -0.24,-0.93 -0.24,-0.94 -0.23,-0.96 -0.23,-0.95 -0.21,-0.95 -0.19,-0.94 -0.17,-0.93 -0.15,-0.9 -0.07,-0.44 -0.06,-0.43 -0.05,-0.43 -0.04,-0.41 -0.03,-0.41 -0.03,-0.39 -0.01,-0.38 -0.01,-0.36 c 0,-1.35 0.85,-1.94 2.05,-1.94 1.99,0 5.72,2.14 5.72,3.14 0,0.25 -0.23,0.34 -0.48,0.34 -0.61,0 -1.5,-0.45 -2.05,-0.75 -0.66,0.1 -1,0.6 -1,1.3 0,6.08 5.69,23.52 7.13,27.2 0.59,1.39 1.25,3.44 1.25,3.83 0,0.36 -0.3,0.36 -0.5,0.36 -1.05,0 -3.3,-1.34 -3.69,-2.3 -0.66,-1.73 -0.75,-1.98 -1.35,-3.82 -1.64,-4.74 -6.58,-12.96 -11.51,-18.74 -1.55,-1.75 -6.42,-7.53 -9.95,-7.53 -2.41,0 -3.9,2.05 -3.9,5.33 0,3.5 1.94,7.98 4.93,14.79 1.79,4.1 3.29,7.63 3.29,9.88 0,2.34 -1.59,2.39 -2.48,2.39 -3.84,0 -8.63,-3.09 -8.63,-4.14 0,-0.3 0.35,-0.3 0.55,-0.3 0.59,0 1.5,0.41 2.3,0.96 0.34,0.25 1.14,0.73 2.48,0.73 1.09,0 1.55,-0.69 1.55,-1.78 0,-2.2 -1.8,-6.28 -3.89,-11.06 -3.28,-7.49 -4.33,-10.68 -4.33,-13.57 0,-3.28 1.3,-5.96 4.83,-5.96 3.09,0 7.62,2.04 12.7,6.76 3.44,3.25 5.69,6.24 7.83,9.13 z"
           inkscape:connector-curvature="0"
           style="fill:#fffff6;stroke-width:0;fill-opacity:1" /><path
           id="path1027"
           d="m 603.03,394.25 v 0.02 0.03 0.01 0.02 0.01 l -0.01,0.02 v 0.01 l -0.01,0.02 -0.01,0.02 -0.01,0.02 -0.01,0.02 -0.02,0.03 -0.01,0.02 -0.02,0.03 -0.02,0.03 -0.03,0.03 -0.02,0.03 -0.03,0.04 -0.02,0.02 -0.01,0.02 -0.02,0.02 -0.02,0.02 -0.02,0.02 -0.02,0.03 -0.02,0.02 -0.02,0.02 -0.02,0.03 -0.03,0.02 -0.02,0.03 -0.03,0.03 -0.02,0.03 -0.03,0.03 -0.03,0.03 -0.03,0.03 -0.03,0.03 -0.03,0.03 -0.04,0.04 -0.03,0.03 -0.04,0.04 -0.03,0.03 -0.04,0.04 -0.04,0.04 c -6.22,6.28 -7.81,15.69 -7.81,23.31 0,8.67 1.89,17.35 8.02,23.56 0.63,0.61 0.63,0.71 0.63,0.86 0,0.35 -0.18,0.49 -0.48,0.49 -0.5,0 -4.98,-3.38 -7.92,-9.7 -2.55,-5.49 -3.14,-11.02 -3.14,-15.21 0,-3.89 0.54,-9.9 3.28,-15.54 2.98,-6.13 7.28,-9.36 7.78,-9.36 0.3,0 0.48,0.14 0.48,0.5 z"
           inkscape:connector-curvature="0"
           style="fill:#fffff6;stroke-width:0;fill-opacity:1" /><path
           id="path1029"
           d="m 638.01,440.82 v 0.02 0.02 l -0.01,0.01 v 0.02 0.02 l -0.01,0.02 v 0.02 l -0.01,0.02 v 0.02 l -0.01,0.02 -0.01,0.02 -0.01,0.02 -0.01,0.02 -0.01,0.02 -0.02,0.02 -0.01,0.02 -0.02,0.02 -0.02,0.02 -0.01,0.02 -0.02,0.02 -0.03,0.01 -0.02,0.02 -0.02,0.01 -0.03,0.02 -0.03,0.01 -0.03,0.01 -0.01,0.01 h -0.02 l -0.01,0.01 h -0.02 -0.02 l -0.01,0.01 h -0.02 -0.02 -0.02 -0.02 -0.02 -0.02 c -0.25,0 -0.31,-0.04 -0.91,-0.75 l -2.39,-2.84 c -1.29,2.34 -3.89,3.59 -7.12,3.59 -6.33,0 -12.3,-5.73 -12.3,-11.76 0,-4.03 2.64,-6.33 5.17,-7.06 l 5.33,-1.41 c 1.85,-0.44 4.6,-1.19 4.6,-5.28 0,-4.49 -4.1,-9.16 -8.97,-9.16 -3.19,0 -8.72,1.1 -8.72,7.27 0,1.2 0.25,2.39 0.3,2.69 0.04,0.2 0.09,0.25 0.09,0.35 0,0.5 -0.34,0.55 -0.59,0.55 -0.25,0 -0.35,-0.05 -0.5,-0.2 -0.21,-0.2 -2.99,-11.56 -2.99,-11.7 0,-0.3 0.25,-0.5 0.55,-0.5 0.25,0 0.29,0.04 0.89,0.75 l 2.45,2.82 c 2.14,-2.89 5.52,-3.57 8.41,-3.57 6.78,0 12.65,6.62 12.65,12.79 0,3.44 -1.68,5.14 -2.43,5.83 -1.14,1.16 -1.89,1.34 -6.33,2.5 -1.1,0.3 -2.89,0.8 -3.35,0.89 -1.34,0.45 -3.03,1.89 -3.03,4.53 0,4.05 3.99,8.28 8.72,8.28 4.14,0 7.17,-2.14 7.17,-7.73 0,-1.59 -0.2,-2.49 -0.2,-2.78 0,-0.05 0,-0.5 0.61,-0.5 0.5,0 0.55,0.15 0.73,1 z"
           inkscape:connector-curvature="0"
           style="fill:#fffff6;stroke-width:0;fill-opacity:1" /><path
           id="path1031"
           d="m 653.73,418.65 v 0.37 0.39 l -0.01,0.39 -0.01,0.41 -0.04,0.84 -0.06,0.88 -0.09,0.92 -0.1,0.95 -0.14,0.97 -0.16,1.01 -0.2,1.02 -0.23,1.03 -0.26,1.05 -0.31,1.06 -0.35,1.07 -0.39,1.07 -0.21,0.53 -0.23,0.53 -0.24,0.53 -0.25,0.53 c -2.98,6.12 -7.26,9.36 -7.76,9.36 -0.3,0 -0.5,-0.19 -0.5,-0.49 0,-0.15 0,-0.25 0.93,-1.15 4.9,-4.92 7.74,-12.85 7.74,-23.27 0,-8.51 -1.84,-17.28 -8.03,-23.56 -0.64,-0.59 -0.64,-0.7 -0.64,-0.84 0,-0.3 0.2,-0.5 0.5,-0.5 0.5,0 4.97,3.39 7.92,9.71 2.53,5.47 3.12,11 3.12,15.19 z"
           inkscape:connector-curvature="0"
           style="fill:#fffff6;stroke-width:0;fill-opacity:1" /></g>    </g>
    <g
       id="g1083"
       transform="matrix(0.50130752,0,0,0.50130752,64.86358,63.78334)"
       style="fill:#fffff6;fill-opacity:1">
      <g
         word-spacing="normal"
         letter-spacing="normal"
         font-size-adjust="none"
         font-stretch="normal"
         font-weight="normal"
         font-variant="normal"
         font-style="normal"
         stroke-miterlimit="10.433"
         xml:space="preserve"
         transform="matrix(0.3,0,0,-0.3,-52.5,222.75)"
         id="g1081"
         style="font-style:normal;font-variant:normal;font-weight:normal;font-stretch:normal;letter-spacing:normal;word-spacing:normal;text-anchor:start;fill:#fffff6;fill-opacity:1;fill-rule:evenodd;stroke:#000000;stroke-linecap:butt;stroke-linejoin:miter;stroke-miterlimit:10.43299961;stroke-dasharray:none;stroke-dashoffset:0;stroke-opacity:1"><path
           id="path1079"
           d="m 487.66,440.82 v 0.02 0.02 0.01 l -0.01,0.02 v 0.02 0.02 l -0.01,0.02 v 0.02 l -0.01,0.02 -0.01,0.02 -0.01,0.02 -0.01,0.02 -0.01,0.02 -0.01,0.02 -0.01,0.02 -0.02,0.02 -0.02,0.02 -0.01,0.02 -0.02,0.02 -0.02,0.02 -0.02,0.01 -0.03,0.02 -0.02,0.01 -0.03,0.02 -0.02,0.01 -0.03,0.01 -0.02,0.01 h -0.01 l -0.02,0.01 h -0.02 -0.01 l -0.02,0.01 h -0.02 -0.02 -0.02 -0.02 -0.02 -0.02 c -0.25,0 -0.31,-0.04 -0.9,-0.75 l -2.39,-2.84 c -1.3,2.34 -3.89,3.59 -7.13,3.59 -6.33,0 -12.3,-5.73 -12.3,-11.76 0,-4.03 2.65,-6.33 5.18,-7.06 l 5.32,-1.41 c 1.85,-0.44 4.6,-1.19 4.6,-5.28 0,-4.49 -4.1,-9.16 -8.97,-9.16 -3.19,0 -8.72,1.1 -8.72,7.27 0,1.2 0.25,2.39 0.3,2.69 0.04,0.2 0.09,0.25 0.09,0.35 0,0.5 -0.34,0.55 -0.59,0.55 -0.25,0 -0.35,-0.05 -0.5,-0.2 -0.21,-0.2 -2.99,-11.56 -2.99,-11.7 0,-0.3 0.25,-0.5 0.55,-0.5 0.25,0 0.3,0.04 0.89,0.75 l 2.45,2.82 c 2.14,-2.89 5.52,-3.57 8.41,-3.57 6.78,0 12.66,6.62 12.66,12.79 0,3.44 -1.69,5.14 -2.44,5.83 -1.14,1.16 -1.89,1.34 -6.33,2.5 -1.09,0.3 -2.89,0.8 -3.34,0.89 -1.35,0.45 -3.03,1.89 -3.03,4.53 0,4.05 3.98,8.28 8.71,8.28 4.15,0 7.18,-2.14 7.18,-7.73 0,-1.59 -0.21,-2.49 -0.21,-2.78 0,-0.05 0,-0.5 0.61,-0.5 0.5,0 0.55,0.15 0.74,1 z"
           inkscape:connector-curvature="0"
           style="fill:#fffff6;stroke-width:0;fill-opacity:1" /></g>    </g>
    <circle
       style="opacity:1;fill:#000000;fill-opacity:1;stroke:#ffffff;stroke-width:0.26499999;stroke-linecap:square;stroke-miterlimit:4;stroke-dasharray:none;stroke-dashoffset:0;stroke-opacity:1"
       id="path1090"
       cx="-106.89442"
       cy="50.368862"
       r="0.45037243"
       transform="rotate(-90)" />
    <circle
       r="0.45037243"
       cy="40.021763"
       cx="-96.315109"
       id="circle1094"
       style="opacity:1;fill:#030303;fill-opacity:1;stroke:#ffffff;stroke-width:0.26499999;stroke-linecap:square;stroke-miterlimit:4;stroke-dasharray:none;stroke-dashoffset:0;stroke-opacity:1"
       transform="rotate(-90)" />
    <g
       id="g1154"
       transform="matrix(0.26475239,0,0,0.26475239,10.946998,65.925753)"
       style="fill:#fffff6;fill-opacity:1">
      <g
         word-spacing="normal"
         letter-spacing="normal"
         font-size-adjust="none"
         font-stretch="normal"
         font-weight="normal"
         font-variant="normal"
         font-style="normal"
         stroke-miterlimit="10.433"
         xml:space="preserve"
         transform="matrix(0.3,0,0,-0.3,-52.5,222.75)"
         id="g1152"
         style="font-style:normal;font-variant:normal;font-weight:normal;font-stretch:normal;letter-spacing:normal;word-spacing:normal;text-anchor:start;fill:#fffff6;fill-opacity:1;fill-rule:evenodd;stroke:#000000;stroke-linecap:butt;stroke-linejoin:miter;stroke-miterlimit:10.43299961;stroke-dasharray:none;stroke-dashoffset:0;stroke-opacity:1"><path
           id="path1132"
           d="m 472.16,421.25 0.03,0.13 0.04,0.15 0.04,0.16 0.04,0.18 0.06,0.19 0.06,0.21 0.06,0.22 0.07,0.22 0.08,0.23 0.09,0.24 0.1,0.25 0.1,0.24 0.11,0.25 0.12,0.25 0.13,0.25 0.14,0.25 0.15,0.24 0.15,0.24 0.17,0.23 0.18,0.22 0.18,0.22 0.2,0.2 0.21,0.19 0.22,0.18 0.23,0.16 0.25,0.14 0.12,0.07 0.13,0.06 0.14,0.05 0.13,0.05 0.14,0.05 0.14,0.04 0.15,0.03 0.15,0.03 0.15,0.02 0.16,0.02 0.16,0.01 h 0.16 c 0.25,0 1.44,0 2.48,-0.64 -1.39,-0.25 -2.39,-1.5 -2.39,-2.69 0,-0.79 0.55,-1.75 1.89,-1.75 1.1,0 2.69,0.89 2.69,2.89 0,2.6 -2.94,3.28 -4.63,3.28 -2.89,0 -4.64,-2.64 -5.23,-3.78 -1.25,3.28 -3.94,3.78 -5.37,3.78 -5.19,0 -8.04,-6.42 -8.04,-7.67 0,-0.5 0.5,-0.5 0.61,-0.5 0.39,0 0.55,0.11 0.64,0.55 1.69,5.28 4.99,6.53 6.68,6.53 0.95,0 2.68,-0.44 2.68,-3.33 0,-1.54 -0.84,-4.89 -2.68,-11.86 -0.8,-3.09 -2.54,-5.18 -4.74,-5.18 -0.3,0 -1.44,0 -2.48,0.65 1.25,0.24 2.34,1.28 2.34,2.69 0,1.34 -1.09,1.73 -1.84,1.73 -1.5,0 -2.75,-1.29 -2.75,-2.89 0,-2.28 2.5,-3.28 4.68,-3.28 3.3,0 5.08,3.49 5.24,3.78 0.59,-1.84 2.39,-3.78 5.37,-3.78 5.14,0 7.99,6.42 7.99,7.67 0,0.5 -0.45,0.5 -0.61,0.5 -0.44,0 -0.55,-0.2 -0.64,-0.54 -1.64,-5.33 -5.03,-6.53 -6.63,-6.53 -1.95,0 -2.75,1.59 -2.75,3.29 0,1.1 0.3,2.19 0.86,4.38 z"
           inkscape:connector-curvature="0"
           style="fill:#fffff6;stroke-width:0;fill-opacity:1" /><path
           id="path1134"
           d="m 501.95,409.87 -0.01,0.71 -0.02,0.68 -0.03,0.66 -0.04,0.64 -0.06,0.62 -0.07,0.6 -0.09,0.57 -0.11,0.56 -0.13,0.55 -0.15,0.53 -0.17,0.51 -0.19,0.5 -0.21,0.49 -0.24,0.48 -0.26,0.47 -0.14,0.23 -0.15,0.23 c -1.08,1.61 -3.23,3 -6.03,3 v -0.98 c 1.89,0 3.7,-1.14 4.33,-3.17 0.56,-1.88 0.59,-4.39 0.59,-7.43 0,-2.57 0,-5.15 -0.45,-7.34 -0.7,-3.17 -3.06,-3.94 -4.47,-3.94 v 0 c -1.59,0 -3.72,0.94 -4.42,3.8 -0.48,2.05 -0.48,4.91 -0.48,7.48 0,2.55 0,5.21 0.51,7.11 0.74,2.75 2.97,3.49 4.39,3.49 v 0.98 c -8.08,0 -8.08,-9.51 -8.08,-12.03 0,-2.5 0,-11.81 8.08,-11.81 8.1,0 8.1,9.31 8.1,11.81 z"
           inkscape:connector-curvature="0"
           style="fill:#fffff6;stroke-width:0;fill-opacity:1" /><path
           id="path1136"
           d="m 556.17,422.84 v 0.1 l -0.01,0.1 v 0.09 l -0.01,0.09 v 0.09 l -0.01,0.08 -0.01,0.08 -0.01,0.08 -0.02,0.07 -0.01,0.07 -0.02,0.07 -0.02,0.07 -0.02,0.06 -0.02,0.05 -0.02,0.06 -0.02,0.05 -0.02,0.04 -0.03,0.05 -0.02,0.04 -0.03,0.04 -0.03,0.03 -0.03,0.03 -0.03,0.03 -0.03,0.03 -0.03,0.02 -0.03,0.02 -0.03,0.02 -0.04,0.01 -0.03,0.01 -0.04,0.01 h -0.03 -0.04 c -0.25,0 -0.66,-0.34 -0.7,-1.29 -0.21,-4.78 -3.49,-7.52 -6.99,-7.52 -3.12,0 -5.51,2.14 -7.97,4.28 -2.53,2.3 -5.12,4.58 -8.51,4.58 -5.44,0 -8.38,-5.48 -8.38,-10.02 0,-1.59 0.66,-1.59 0.71,-1.59 0.54,0 0.7,1 0.7,1.16 0.19,5.47 3.94,7.67 6.97,7.67 3.14,0 5.53,-2.14 7.97,-4.3 2.54,-2.28 5.14,-4.58 8.51,-4.58 5.44,0 8.38,5.49 8.38,10.02 z"
           inkscape:connector-curvature="0"
           style="fill:#fffff6;stroke-width:0;fill-opacity:1" /><path
           id="path1138"
           d="m 574.99,400.12 -0.03,-0.15 -0.04,-0.15 -0.03,-0.14 -0.04,-0.13 -0.03,-0.13 -0.03,-0.11 -0.04,-0.12 -0.03,-0.1 -0.04,-0.1 -0.04,-0.09 -0.04,-0.09 -0.05,-0.08 -0.05,-0.07 -0.05,-0.07 -0.06,-0.07 -0.06,-0.06 -0.07,-0.05 -0.07,-0.05 -0.08,-0.04 -0.09,-0.04 -0.09,-0.04 -0.1,-0.03 -0.11,-0.03 -0.12,-0.02 -0.13,-0.02 -0.06,-0.01 -0.07,-0.01 -0.07,-0.01 -0.08,-0.01 h -0.07 l -0.08,-0.01 h -0.08 l -0.09,-0.01 h -0.09 -0.09 -0.09 -0.09 l -0.1,-0.01 h -0.11 c -0.59,0 -1.14,0 -1.14,-0.93 0,-0.41 0.25,-0.61 0.64,-0.61 1.36,0 2.8,0.15 4.19,0.15 1.64,0 3.35,-0.15 4.94,-0.15 0.25,0 0.89,0 0.89,1 0,0.54 -0.5,0.54 -1.19,0.54 -2.5,0 -2.5,0.36 -2.5,0.8 0,0.61 2.1,8.72 2.46,9.97 0.64,-1.44 2.03,-3.19 4.57,-3.19 l -0.04,1.1 c -3.3,0 -3.94,4.14 -3.94,4.43 0,0.1 0,0.21 0.14,0.8 l 2.45,9.77 c 0.35,1.34 1.69,2.73 2.58,3.48 1.75,1.55 3.2,1.89 4.05,1.89 1.98,0 3.19,-1.73 3.19,-4.69 0,-2.93 -1.64,-8.65 -2.55,-10.56 -1.69,-3.48 -4.08,-5.12 -5.92,-5.12 l 0.04,-1.1 c 5.79,0 12,7.27 12,14.6 0,4.68 -2.82,7.96 -6.62,7.96 -2.49,0 -4.88,-1.78 -6.52,-3.73 -0.5,2.69 -2.64,3.73 -4.48,3.73 -2.3,0 -3.25,-1.93 -3.69,-2.82 -0.9,-1.71 -1.55,-4.69 -1.55,-4.85 0,-0.5 0.5,-0.5 0.6,-0.5 0.5,0 0.55,0.07 0.84,1.16 0.86,3.53 1.85,5.92 3.64,5.92 0.85,0 1.55,-0.39 1.55,-2.28 0,-1.16 -0.16,-1.7 -0.34,-2.55 z"
           inkscape:connector-curvature="0"
           style="fill:#fffff6;stroke-width:0;fill-opacity:1" /><path
           id="path1140"
           d="m 607.53,393.26 h -0.11 -0.1 -0.1 -0.1 -0.09 -0.09 -0.09 -0.09 l -0.08,0.01 h -0.08 -0.08 -0.07 -0.08 l -0.07,0.01 h -0.07 l -0.07,0.01 h -0.06 l -0.06,0.01 -0.12,0.01 -0.11,0.01 -0.1,0.02 -0.1,0.02 -0.08,0.03 -0.08,0.03 -0.08,0.03 -0.06,0.04 -0.06,0.04 -0.06,0.05 -0.04,0.05 -0.05,0.06 -0.03,0.06 -0.04,0.07 -0.02,0.07 -0.03,0.09 -0.02,0.09 -0.01,0.09 -0.01,0.11 -0.01,0.11 -0.01,0.12 v 0.13 0.13 5.67 c 0.17,-0.17 1.81,-2.01 4.73,-2.01 l -0.2,0.97 c -3.08,0 -4.44,2.68 -4.53,2.89 v 8.09 c 1.05,1.74 3.06,2.64 4.9,2.64 2.93,0 5.19,-3.06 5.19,-6.72 0,-3.98 -2.61,-6.9 -5.56,-6.9 l 0.2,-0.97 c 4.6,0 8.53,3.44 8.53,7.87 0,4.28 -3.54,7.83 -7.96,7.83 -1.99,0 -4.02,-0.72 -5.44,-2.12 v 2.12 l -5.24,-0.37 v -1.25 c 2.44,0 2.63,-0.19 2.63,-1.64 v -16.1 c 0,-1.5 -0.36,-1.5 -2.63,-1.5 V 392 c 0.08,0 2.52,0.14 3.97,0.14 1.3,0 3.71,-0.1 4.02,-0.14 z"
           inkscape:connector-curvature="0"
           style="fill:#fffff6;stroke-width:0;fill-opacity:1" /><path
           id="path1142"
           d="m 626.73,406.7 0.01,0.28 0.01,0.28 0.02,0.28 0.03,0.28 0.04,0.28 0.04,0.29 0.06,0.28 0.06,0.28 0.07,0.27 0.08,0.28 0.09,0.27 0.1,0.26 0.11,0.26 0.11,0.25 0.13,0.25 0.14,0.24 0.14,0.23 0.16,0.22 0.17,0.21 0.17,0.19 0.19,0.19 0.19,0.18 0.21,0.16 0.22,0.15 0.23,0.13 0.23,0.12 0.25,0.1 0.26,0.09 0.28,0.06 0.28,0.05 0.29,0.03 0.31,0.01 c -0.32,-0.25 -0.6,-0.7 -0.6,-1.25 0,-1.15 0.91,-1.61 1.57,-1.61 0.84,0 1.6,0.57 1.6,1.61 0,1.19 -1.12,2.22 -2.76,2.22 -1.74,0 -3.66,-1.08 -4.7,-3.72 h -0.04 v 3.72 l -4.98,-0.37 v -1.25 c 2.34,0 2.62,-0.25 2.62,-1.96 v -9.03 c 0,-1.5 -0.35,-1.5 -2.62,-1.5 v -1.25 c 0.17,0 2.55,0.14 3.97,0.14 1.5,0 3.05,-0.08 4.53,-0.14 v 1.25 h -0.69 c -2.58,0 -2.58,0.39 -2.58,1.58 z"
           inkscape:connector-curvature="0"
           style="fill:#fffff6;stroke-width:0;fill-opacity:1" /><path
           id="path1144"
           d="m 642.75,420.26 v 0.1 l -0.01,0.09 -0.01,0.1 -0.01,0.09 -0.03,0.09 -0.02,0.09 -0.03,0.09 -0.04,0.09 -0.04,0.09 -0.04,0.08 -0.04,0.08 -0.06,0.09 -0.05,0.07 -0.06,0.08 -0.06,0.07 -0.07,0.07 -0.07,0.07 -0.07,0.07 -0.07,0.06 -0.08,0.06 -0.08,0.05 -0.09,0.05 -0.09,0.05 -0.09,0.04 -0.09,0.04 -0.1,0.03 -0.1,0.03 -0.1,0.02 -0.1,0.02 -0.11,0.01 -0.11,0.01 -0.11,0.01 c -1.04,0 -1.98,-0.83 -1.98,-1.99 0,-1.25 1.01,-2.01 1.98,-2.01 1.13,0 2.03,0.86 2.03,2.01 z"
           inkscape:connector-curvature="0"
           style="fill:#fffff6;stroke-width:0;fill-opacity:1" /><path
           id="path1146"
           d="m 637.46,413.75 v -1.25 c 2.19,0 2.5,-0.22 2.5,-1.93 v -9.06 c 0,-1.5 -0.35,-1.5 -2.61,-1.5 v -1.25 c 0.06,0 2.5,0.14 3.9,0.14 1.22,0 2.47,-0.03 3.69,-0.14 v 1.25 c -2.01,0 -2.37,0 -2.37,1.47 v 12.64 z"
           inkscape:connector-curvature="0"
           style="fill:#fffff6;stroke-width:0;fill-opacity:1" /><path
           id="path1148"
           d="m 665.11,406.18 -0.01,0.41 -0.03,0.4 -0.06,0.4 -0.07,0.39 -0.09,0.39 -0.12,0.38 -0.13,0.38 -0.15,0.36 -0.17,0.36 -0.18,0.35 -0.21,0.34 -0.22,0.33 -0.23,0.32 -0.25,0.31 -0.27,0.3 -0.28,0.28 -0.29,0.27 -0.31,0.26 -0.32,0.25 -0.34,0.23 -0.34,0.21 -0.36,0.2 -0.37,0.19 -0.38,0.16 -0.39,0.15 -0.4,0.13 -0.41,0.12 -0.42,0.09 -0.42,0.07 -0.44,0.06 -0.44,0.03 -0.45,0.01 v -0.99 c 2.06,0 3.53,-0.96 4.3,-2.04 0.97,-1.36 1.08,-3.11 1.08,-4.78 0,-1.68 -0.11,-3.52 -1.13,-4.96 -0.93,-1.31 -2.53,-2.01 -4.25,-2.01 v 0 c -1.28,0 -3.17,0.42 -4.31,2.12 -0.94,1.44 -1.05,3.24 -1.05,4.85 0,1.5 0.03,3.56 1.25,5.04 0.88,1.02 2.35,1.78 4.11,1.78 v 0.99 c -4.79,0 -8.53,-3.77 -8.53,-8.13 0,-4.32 3.83,-7.76 8.53,-7.76 4.71,0 8.55,3.44 8.55,7.76 z"
           inkscape:connector-curvature="0"
           style="fill:#fffff6;stroke-width:0;fill-opacity:1" /><path
           id="path1150"
           d="m 673.41,406.7 v 0.28 l 0.01,0.28 0.02,0.28 0.03,0.28 0.04,0.28 0.04,0.29 0.06,0.28 0.06,0.28 0.07,0.27 0.08,0.28 0.09,0.27 0.1,0.26 0.11,0.26 0.12,0.25 0.12,0.25 0.14,0.24 0.15,0.23 0.15,0.22 0.17,0.21 0.17,0.19 0.19,0.19 0.2,0.18 0.2,0.16 0.22,0.15 0.23,0.13 0.24,0.12 0.25,0.1 0.26,0.09 0.27,0.06 0.28,0.05 0.29,0.03 0.31,0.01 c -0.31,-0.25 -0.6,-0.7 -0.6,-1.25 0,-1.15 0.91,-1.61 1.57,-1.61 0.84,0 1.61,0.57 1.61,1.61 0,1.19 -1.13,2.22 -2.77,2.22 -1.73,0 -3.66,-1.08 -4.7,-3.72 h -0.03 v 3.72 l -4.99,-0.37 v -1.25 c 2.35,0 2.63,-0.25 2.63,-1.96 v -9.03 c 0,-1.5 -0.36,-1.5 -2.63,-1.5 v -1.25 c 0.17,0 2.55,0.14 3.97,0.14 1.5,0 3.05,-0.08 4.53,-0.14 v 1.25 h -0.69 c -2.57,0 -2.57,0.39 -2.57,1.58 z"
           inkscape:connector-curvature="0"
           style="fill:#fffff6;stroke-width:0;fill-opacity:1" /></g>    </g>
    <g
       id="g1306"
       transform="matrix(0.49192018,0,0,0.49192018,-17.429974,27.823192)"
       style="fill:#fffff6;fill-opacity:1">
      <g
         word-spacing="normal"
         letter-spacing="normal"
         font-size-adjust="none"
         font-stretch="normal"
         font-weight="normal"
         font-variant="normal"
         font-style="normal"
         stroke-miterlimit="10.433"
         xml:space="preserve"
         transform="matrix(0.3,0,0,-0.3,-52.5,222.75)"
         id="g1304"
         style="font-style:normal;font-variant:normal;font-weight:normal;font-stretch:normal;letter-spacing:normal;word-spacing:normal;text-anchor:start;fill:#fffff6;fill-opacity:1;fill-rule:evenodd;stroke:#000000;stroke-linecap:butt;stroke-linejoin:miter;stroke-miterlimit:10.43299961;stroke-dasharray:none;stroke-dashoffset:0;stroke-opacity:1"><path
           id="path1218"
           d="m 457.75,400.12 -0.03,-0.15 -0.04,-0.15 -0.03,-0.14 -0.03,-0.13 -0.04,-0.13 -0.03,-0.11 -0.04,-0.12 -0.03,-0.1 -0.04,-0.1 -0.04,-0.09 -0.04,-0.09 -0.05,-0.08 -0.05,-0.07 -0.05,-0.07 -0.06,-0.07 -0.06,-0.06 -0.07,-0.05 -0.07,-0.05 -0.08,-0.04 -0.09,-0.04 -0.09,-0.04 -0.1,-0.03 -0.11,-0.03 -0.12,-0.02 -0.13,-0.02 -0.06,-0.01 -0.07,-0.01 -0.07,-0.01 -0.08,-0.01 h -0.07 l -0.08,-0.01 h -0.08 l -0.09,-0.01 h -0.08 -0.09 -0.1 -0.09 l -0.1,-0.01 h -0.1 c -0.6,0 -1.14,0 -1.14,-0.93 0,-0.41 0.25,-0.61 0.64,-0.61 1.36,0 2.79,0.15 4.18,0.15 1.64,0 3.35,-0.15 4.94,-0.15 0.25,0 0.89,0 0.89,1 0,0.54 -0.5,0.54 -1.19,0.54 -2.5,0 -2.5,0.36 -2.5,0.8 0,0.61 2.1,8.72 2.46,9.97 0.64,-1.44 2.03,-3.19 4.58,-3.19 l -0.05,1.1 c -3.3,0 -3.94,4.14 -3.94,4.43 0,0.1 0,0.21 0.14,0.8 l 2.46,9.77 c 0.34,1.34 1.68,2.73 2.57,3.48 1.75,1.55 3.21,1.89 4.05,1.89 1.98,0 3.19,-1.73 3.19,-4.69 0,-2.93 -1.64,-8.65 -2.55,-10.56 -1.69,-3.48 -4.08,-5.12 -5.92,-5.12 l 0.05,-1.1 c 5.78,0 12,7.27 12,14.6 0,4.68 -2.83,7.96 -6.63,7.96 -2.48,0 -4.87,-1.78 -6.51,-3.73 -0.5,2.69 -2.65,3.73 -4.49,3.73 -2.3,0 -3.25,-1.93 -3.69,-2.82 -0.9,-1.71 -1.54,-4.69 -1.54,-4.85 0,-0.5 0.5,-0.5 0.59,-0.5 0.5,0 0.55,0.07 0.84,1.16 0.86,3.53 1.85,5.92 3.64,5.92 0.85,0 1.55,-0.39 1.55,-2.28 0,-1.16 -0.15,-1.7 -0.34,-2.55 z"
           inkscape:connector-curvature="0"
           style="fill:#fffff6;stroke-width:0;fill-opacity:1" /><path
           id="path1220"
           d="m 490.29,393.26 h -0.11 -0.1 -0.1 -0.09 -0.1 -0.09 -0.09 -0.08 l -0.09,0.01 h -0.08 -0.08 -0.07 -0.08 l -0.07,0.01 h -0.07 l -0.06,0.01 h -0.07 l -0.06,0.01 -0.12,0.01 -0.11,0.01 -0.1,0.02 -0.1,0.02 -0.08,0.03 -0.08,0.03 -0.08,0.03 -0.06,0.04 -0.06,0.04 -0.05,0.05 -0.05,0.05 -0.04,0.06 -0.04,0.06 -0.03,0.07 -0.03,0.07 -0.02,0.09 -0.02,0.09 -0.02,0.09 -0.01,0.11 -0.01,0.11 -0.01,0.12 v 0.13 0.13 5.67 c 0.17,-0.17 1.81,-2.01 4.73,-2.01 l -0.2,0.97 c -3.08,0 -4.44,2.68 -4.53,2.89 v 8.09 c 1.05,1.74 3.06,2.64 4.91,2.64 2.92,0 5.18,-3.06 5.18,-6.72 0,-3.98 -2.61,-6.9 -5.56,-6.9 l 0.2,-0.97 c 4.6,0 8.54,3.44 8.54,7.87 0,4.28 -3.55,7.83 -7.97,7.83 -1.99,0 -4.02,-0.72 -5.44,-2.12 v 2.12 l -5.24,-0.37 v -1.25 c 2.44,0 2.63,-0.19 2.63,-1.64 v -16.1 c 0,-1.5 -0.36,-1.5 -2.63,-1.5 V 392 c 0.08,0 2.52,0.14 3.97,0.14 1.3,0 3.71,-0.1 4.02,-0.14 z"
           inkscape:connector-curvature="0"
           style="fill:#fffff6;stroke-width:0;fill-opacity:1" /><path
           id="path1222"
           d="m 509.5,406.7 v 0.28 l 0.01,0.28 0.02,0.28 0.03,0.28 0.04,0.28 0.04,0.29 0.06,0.28 0.06,0.28 0.07,0.27 0.08,0.28 0.09,0.27 0.1,0.26 0.11,0.26 0.12,0.25 0.12,0.25 0.14,0.24 0.15,0.23 0.15,0.22 0.17,0.21 0.17,0.19 0.19,0.19 0.2,0.18 0.2,0.16 0.22,0.15 0.23,0.13 0.24,0.12 0.25,0.1 0.26,0.09 0.27,0.06 0.28,0.05 0.29,0.03 0.31,0.01 c -0.32,-0.25 -0.6,-0.7 -0.6,-1.25 0,-1.15 0.91,-1.61 1.57,-1.61 0.84,0 1.61,0.57 1.61,1.61 0,1.19 -1.13,2.22 -2.77,2.22 -1.73,0 -3.66,-1.08 -4.7,-3.72 h -0.03 v 3.72 l -4.99,-0.37 v -1.25 c 2.35,0 2.63,-0.25 2.63,-1.96 v -9.03 c 0,-1.5 -0.36,-1.5 -2.63,-1.5 v -1.25 c 0.17,0 2.55,0.14 3.97,0.14 1.5,0 3.05,-0.08 4.53,-0.14 v 1.25 h -0.69 c -2.57,0 -2.57,0.39 -2.57,1.58 z"
           inkscape:connector-curvature="0"
           style="fill:#fffff6;stroke-width:0;fill-opacity:1" /><path
           id="path1224"
           d="m 525.52,420.26 -0.01,0.1 v 0.09 l -0.02,0.1 -0.01,0.09 -0.02,0.09 -0.03,0.09 -0.03,0.09 -0.03,0.09 -0.04,0.09 -0.05,0.08 -0.04,0.08 -0.05,0.09 -0.06,0.07 -0.06,0.08 -0.06,0.07 -0.06,0.07 -0.07,0.07 -0.08,0.07 -0.07,0.06 -0.08,0.06 -0.08,0.05 -0.09,0.05 -0.09,0.05 -0.09,0.04 -0.09,0.04 -0.1,0.03 -0.1,0.03 -0.1,0.02 -0.1,0.02 -0.11,0.01 -0.11,0.01 -0.11,0.01 c -1.04,0 -1.98,-0.83 -1.98,-1.99 0,-1.25 1.02,-2.01 1.98,-2.01 1.13,0 2.04,0.86 2.04,2.01 z"
           inkscape:connector-curvature="0"
           style="fill:#fffff6;stroke-width:0;fill-opacity:1" /><path
           id="path1226"
           d="m 520.22,413.75 v -1.25 c 2.19,0 2.5,-0.22 2.5,-1.93 v -9.06 c 0,-1.5 -0.34,-1.5 -2.61,-1.5 v -1.25 c 0.06,0 2.5,0.14 3.91,0.14 1.21,0 2.46,-0.03 3.68,-0.14 v 1.25 c -2.01,0 -2.37,0 -2.37,1.47 v 12.64 z"
           inkscape:connector-curvature="0"
           style="fill:#fffff6;stroke-width:0;fill-opacity:1" /><path
           id="path1228"
           d="m 547.87,406.18 -0.01,0.41 -0.03,0.4 -0.06,0.4 -0.07,0.39 -0.09,0.39 -0.12,0.38 -0.13,0.38 -0.15,0.36 -0.17,0.36 -0.18,0.35 -0.2,0.34 -0.22,0.33 -0.24,0.32 -0.25,0.31 -0.27,0.3 -0.28,0.28 -0.29,0.27 -0.31,0.26 -0.32,0.25 -0.34,0.23 -0.34,0.21 -0.36,0.2 -0.37,0.19 -0.38,0.16 -0.39,0.15 -0.4,0.13 -0.41,0.12 -0.42,0.09 -0.42,0.07 -0.44,0.06 -0.44,0.03 -0.45,0.01 v -0.99 c 2.07,0 3.53,-0.96 4.3,-2.04 0.97,-1.36 1.08,-3.11 1.08,-4.78 0,-1.68 -0.11,-3.52 -1.13,-4.96 -0.93,-1.31 -2.53,-2.01 -4.25,-2.01 v 0 c -1.28,0 -3.17,0.42 -4.31,2.12 -0.94,1.44 -1.04,3.24 -1.04,4.85 0,1.5 0.03,3.56 1.25,5.04 0.87,1.02 2.34,1.78 4.1,1.78 v 0.99 c -4.79,0 -8.53,-3.77 -8.53,-8.13 0,-4.32 3.83,-7.76 8.53,-7.76 4.71,0 8.55,3.44 8.55,7.76 z"
           inkscape:connector-curvature="0"
           style="fill:#fffff6;stroke-width:0;fill-opacity:1" /><path
           id="path1230"
           d="m 556.17,406.7 v 0.28 l 0.01,0.28 0.02,0.28 0.03,0.28 0.04,0.28 0.05,0.29 0.05,0.28 0.06,0.28 0.07,0.27 0.08,0.28 0.09,0.27 0.1,0.26 0.11,0.26 0.12,0.25 0.13,0.25 0.13,0.24 0.15,0.23 0.15,0.22 0.17,0.21 0.18,0.19 0.18,0.19 0.2,0.18 0.21,0.16 0.21,0.15 0.23,0.13 0.24,0.12 0.25,0.1 0.26,0.09 0.27,0.06 0.28,0.05 0.3,0.03 0.3,0.01 c -0.31,-0.25 -0.59,-0.7 -0.59,-1.25 0,-1.15 0.9,-1.61 1.56,-1.61 0.84,0 1.61,0.57 1.61,1.61 0,1.19 -1.13,2.22 -2.77,2.22 -1.73,0 -3.65,-1.08 -4.7,-3.72 h -0.03 v 3.72 l -4.99,-0.37 v -1.25 c 2.35,0 2.63,-0.25 2.63,-1.96 v -9.03 c 0,-1.5 -0.36,-1.5 -2.63,-1.5 v -1.25 c 0.17,0 2.55,0.14 3.97,0.14 1.5,0 3.05,-0.08 4.53,-0.14 v 1.25 h -0.68 c -2.58,0 -2.58,0.39 -2.58,1.58 z"
           inkscape:connector-curvature="0"
           style="fill:#fffff6;stroke-width:0;fill-opacity:1" /><path
           id="path1232"
           d="m 583.84,394.25 v 0.02 0.03 0.01 0.02 0.01 l -0.01,0.02 v 0.01 l -0.01,0.02 -0.01,0.02 -0.01,0.02 -0.01,0.02 -0.02,0.03 -0.01,0.02 -0.02,0.03 -0.02,0.03 -0.03,0.03 -0.02,0.03 -0.03,0.04 -0.02,0.02 -0.01,0.02 -0.02,0.02 -0.02,0.02 -0.02,0.02 -0.02,0.03 -0.02,0.02 -0.02,0.02 -0.02,0.03 -0.03,0.02 -0.02,0.03 -0.03,0.03 -0.03,0.03 -0.02,0.03 -0.03,0.03 -0.03,0.03 -0.03,0.03 -0.03,0.03 -0.04,0.04 -0.03,0.03 -0.04,0.04 -0.03,0.03 -0.04,0.04 -0.04,0.04 c -6.22,6.28 -7.81,15.69 -7.81,23.31 0,8.67 1.89,17.35 8.01,23.56 0.64,0.61 0.64,0.71 0.64,0.86 0,0.35 -0.18,0.49 -0.48,0.49 -0.5,0 -4.98,-3.38 -7.92,-9.7 -2.55,-5.49 -3.14,-11.02 -3.14,-15.21 0,-3.89 0.54,-9.9 3.28,-15.54 2.98,-6.13 7.28,-9.36 7.78,-9.36 0.3,0 0.48,0.14 0.48,0.5 z"
           inkscape:connector-curvature="0"
           style="fill:#fffff6;stroke-width:0;fill-opacity:1" /><path
           id="path1234"
           d="m 603.32,421.25 0.03,0.13 0.03,0.15 0.04,0.16 0.05,0.18 0.05,0.19 0.06,0.21 0.07,0.22 0.07,0.22 0.08,0.23 0.09,0.24 0.09,0.25 0.11,0.24 0.11,0.25 0.12,0.25 0.13,0.25 0.13,0.25 0.15,0.24 0.16,0.24 0.16,0.23 0.18,0.22 0.19,0.22 0.2,0.2 0.21,0.19 0.22,0.18 0.23,0.16 0.24,0.14 0.13,0.07 0.13,0.06 0.13,0.05 0.14,0.05 0.14,0.05 0.14,0.04 0.15,0.03 0.15,0.03 0.15,0.02 0.15,0.02 0.16,0.01 h 0.16 c 0.25,0 1.44,0 2.49,-0.64 -1.39,-0.25 -2.39,-1.5 -2.39,-2.69 0,-0.79 0.55,-1.75 1.89,-1.75 1.09,0 2.69,0.89 2.69,2.89 0,2.6 -2.94,3.28 -4.63,3.28 -2.89,0 -4.64,-2.64 -5.23,-3.78 -1.25,3.28 -3.94,3.78 -5.38,3.78 -5.19,0 -8.03,-6.42 -8.03,-7.67 0,-0.5 0.5,-0.5 0.61,-0.5 0.39,0 0.55,0.11 0.64,0.55 1.69,5.28 4.99,6.53 6.67,6.53 0.95,0 2.69,-0.44 2.69,-3.33 0,-1.54 -0.84,-4.89 -2.69,-11.86 -0.8,-3.09 -2.53,-5.18 -4.73,-5.18 -0.3,0 -1.44,0 -2.49,0.65 1.25,0.24 2.35,1.28 2.35,2.69 0,1.34 -1.1,1.73 -1.85,1.73 -1.5,0 -2.75,-1.29 -2.75,-2.89 0,-2.28 2.5,-3.28 4.69,-3.28 3.3,0 5.08,3.49 5.23,3.78 0.6,-1.84 2.4,-3.78 5.38,-3.78 5.14,0 7.99,6.42 7.99,7.67 0,0.5 -0.46,0.5 -0.62,0.5 -0.43,0 -0.54,-0.2 -0.63,-0.54 -1.65,-5.33 -5.04,-6.53 -6.63,-6.53 -1.95,0 -2.75,1.59 -2.75,3.29 0,1.1 0.3,2.19 0.86,4.38 z"
           inkscape:connector-curvature="0"
           style="fill:#fffff6;stroke-width:0;fill-opacity:1" /><path
           id="path1236"
           d="m 629.5,418.65 v 0.37 0.39 l -0.01,0.39 -0.01,0.41 -0.04,0.84 -0.06,0.88 -0.09,0.92 -0.1,0.95 -0.14,0.97 -0.16,1.01 -0.2,1.02 -0.23,1.03 -0.26,1.05 -0.31,1.06 -0.35,1.07 -0.39,1.07 -0.21,0.53 -0.23,0.53 -0.24,0.53 -0.25,0.53 c -2.98,6.12 -7.26,9.36 -7.76,9.36 -0.3,0 -0.5,-0.19 -0.5,-0.49 0,-0.15 0,-0.25 0.94,-1.15 4.88,-4.92 7.73,-12.85 7.73,-23.27 0,-8.51 -1.85,-17.28 -8.03,-23.56 -0.64,-0.59 -0.64,-0.7 -0.64,-0.84 0,-0.3 0.2,-0.5 0.5,-0.5 0.5,0 4.97,3.39 7.92,9.71 2.53,5.47 3.12,11 3.12,15.19 z"
           inkscape:connector-curvature="0"
           style="fill:#fffff6;stroke-width:0;fill-opacity:1" /><path
           id="path1238"
           d="m 682.7,422.5 h 0.14 0.15 0.14 l 0.07,0.01 h 0.08 l 0.07,0.01 0.07,0.01 0.07,0.01 0.07,0.01 0.07,0.01 0.06,0.02 0.07,0.02 0.06,0.02 0.06,0.02 0.06,0.03 0.06,0.03 0.05,0.04 0.05,0.03 0.05,0.05 0.04,0.04 0.04,0.05 0.02,0.03 0.02,0.03 0.01,0.02 0.02,0.03 0.01,0.03 0.02,0.04 0.01,0.03 0.01,0.04 0.01,0.03 0.01,0.04 v 0.04 l 0.01,0.04 v 0.04 l 0.01,0.04 v 0.04 0.05 c 0,1 -0.95,1 -1.64,1 h -29.84 c -0.71,0 -1.64,0 -1.64,-1 0,-0.98 0.93,-0.98 1.68,-0.98 z"
           inkscape:connector-curvature="0"
           style="fill:#fffff6;stroke-width:0;fill-opacity:1" /><path
           id="path1240"
           d="m 682.75,412.82 h 0.07 0.06 l 0.14,0.01 h 0.14 0.07 l 0.07,0.01 0.07,0.01 h 0.07 l 0.06,0.01 0.07,0.02 0.07,0.01 0.06,0.02 0.07,0.02 0.06,0.02 0.06,0.02 0.06,0.03 0.05,0.03 0.05,0.04 0.05,0.04 0.05,0.04 0.04,0.05 0.02,0.02 0.02,0.03 0.02,0.02 0.02,0.03 0.01,0.03 0.02,0.03 0.01,0.03 0.02,0.03 0.01,0.04 0.01,0.03 0.01,0.04 0.01,0.04 v 0.04 l 0.01,0.04 v 0.04 l 0.01,0.04 v 0.05 0.04 c 0,1 -0.95,1 -1.69,1 h -29.75 c -0.75,0 -1.68,0 -1.68,-1 0,-1 0.93,-1 1.64,-1 z"
           inkscape:connector-curvature="0"
           style="fill:#fffff6;stroke-width:0;fill-opacity:1" /><path
           id="path1242"
           d="m 883.88,432.95 h -1.19 c -0.1,-0.77 -0.46,-2.83 -0.91,-3.18 -0.26,-0.2 -2.95,-0.2 -3.44,-0.2 h -6.42 c 3.66,3.23 4.88,4.2 6.97,5.84 2.58,2.07 4.99,4.22 4.99,7.54 0,4.21 -3.69,6.79 -8.16,6.79 -4.31,0 -7.25,-3.03 -7.25,-6.23 0,-1.78 1.5,-1.96 1.86,-1.96 0.83,0 1.84,0.6 1.84,1.85 0,0.62 -0.25,1.84 -2.06,1.84 1.08,2.47 3.45,3.24 5.09,3.24 3.49,0 5.3,-2.71 5.3,-5.53 0,-3.04 -2.16,-5.44 -3.28,-6.69 l -8.39,-8.3 c -0.36,-0.31 -0.36,-0.39 -0.36,-1.36 h 14.36 z"
           inkscape:connector-curvature="0"
           style="fill:#fffff6;stroke-width:0;fill-opacity:1" /><path
           id="path1244"
           d="m 891.94,429.66 0.17,0.17 0.16,0.17 0.17,0.16 0.17,0.17 0.17,0.17 0.1,0.09 0.1,0.1 0.1,0.09 0.1,0.1 0.12,0.1 0.11,0.11 0.13,0.11 0.12,0.11 0.14,0.12 0.14,0.13 0.16,0.13 0.16,0.14 0.16,0.14 0.18,0.15 0.19,0.16 0.2,0.16 0.21,0.17 0.22,0.18 0.23,0.19 0.24,0.2 0.26,0.21 0.27,0.21 c 0.74,0.6 3.35,2.69 4.36,3.66 2.13,2.09 3.45,3.87 3.45,4.29 0,0.41 -0.45,0.41 -0.59,0.41 -0.31,0 -0.42,-0.06 -0.59,-0.34 -1.08,-1.6 -1.82,-2.13 -2.64,-2.13 -0.43,0 -0.96,0.03 -2,1.05 -1.18,1.19 -1.94,1.42 -2.75,1.42 -2.78,0 -4.68,-3.03 -4.68,-4.06 0,-0.33 0.36,-0.42 0.6,-0.42 0.42,0 0.5,0.09 0.62,0.48 0.53,1.22 2.49,1.3 3.05,1.3 0.8,0 1.7,-0.22 2.19,-0.33 1.92,-0.41 2.15,-0.41 3.03,-0.41 -0.91,-0.95 -1.53,-1.57 -4.85,-4.22 -2.71,-2.15 -3.65,-3.03 -4.31,-3.73 -2.09,-2.05 -3.11,-3.58 -3.11,-3.91 0,-0.4 0.46,-0.4 0.6,-0.4 0.34,0 0.42,0.06 0.59,0.34 0.94,1.33 2.02,2.13 3.2,2.13 0.43,0 0.94,-0.03 1.88,-0.91 1.09,-1.05 1.78,-1.56 2.91,-1.56 3.71,0 6.06,4.22 6.06,5.39 0,0.42 -0.39,0.45 -0.6,0.45 -0.42,0 -0.5,-0.17 -0.62,-0.55 -0.67,-1.75 -2.72,-2.57 -4.44,-2.57 -0.8,0 -1.67,0.17 -2.53,0.37 -1.61,0.35 -1.89,0.35 -2.52,0.35 -0.07,0 -0.59,0 -0.79,-0.04 z"
           inkscape:connector-curvature="0"
           style="fill:#fffff6;stroke-width:0;fill-opacity:1" /><path
           id="path1246"
           d="m 928.77,429.07 v 0.15 l -0.01,0.13 -0.01,0.14 -0.01,0.13 -0.01,0.13 -0.02,0.12 -0.02,0.12 -0.02,0.12 -0.03,0.11 -0.03,0.11 -0.03,0.11 -0.04,0.1 -0.03,0.1 -0.05,0.1 -0.08,0.18 -0.1,0.17 -0.11,0.16 -0.11,0.15 -0.13,0.13 -0.13,0.13 -0.13,0.12 -0.15,0.1 -0.15,0.1 -0.15,0.09 -0.17,0.07 -0.16,0.08 -0.17,0.06 -0.17,0.05 -0.18,0.05 -0.18,0.04 -0.18,0.04 -0.18,0.03 -0.18,0.02 -0.18,0.02 -0.19,0.02 -0.18,0.01 -0.18,0.01 h -0.35 c -2.44,0 -3.86,-1.21 -4.57,-2.32 -0.62,2.29 -3.15,2.32 -4.07,2.32 -2.57,0 -4.02,-1.37 -4.65,-2.45 v 2.45 l -4.07,-0.28 v -1.09 c 1.84,0 2.06,-0.17 2.06,-1.39 v -6.16 c 0,-0.78 0,-1 -1.62,-1 h -0.44 v -1.09 c 1.06,0.08 2.11,0.09 3.19,0.09 1.04,0 2.1,-0.01 3.15,-0.09 v 1.09 h -0.44 c -1.62,0 -1.62,0.22 -1.62,1 v 4.33 c 0,2.77 2.54,3.77 4.16,3.77 1.82,0 2.26,-1.02 2.26,-2.64 v -5.46 c 0,-0.78 0,-1 -1.61,-1 h -0.45 v -1.09 c 1.08,0.08 2.11,0.09 3.18,0.09 1.05,0 2.13,-0.01 3.16,-0.09 v 1.09 h -0.44 c -1.62,0 -1.62,0.22 -1.62,1 v 4.33 c 0,2.77 2.55,3.77 4.15,3.77 1.83,0 2.27,-1.02 2.27,-2.64 v -5.46 c 0,-0.78 0,-1 -1.61,-1 h -0.45 v -1.09 c 1.08,0.08 2.12,0.09 3.19,0.09 1.04,0 2.12,-0.01 3.17,-0.09 v 1.09 h -0.45 c -1.63,0 -1.63,0.22 -1.63,1 z"
           inkscape:connector-curvature="0"
           style="fill:#fffff6;stroke-width:0;fill-opacity:1" /><path
           id="path1248"
           d="m 945.55,428.96 -0.01,0.23 -0.02,0.21 -0.03,0.21 -0.05,0.2 -0.07,0.2 -0.07,0.19 -0.09,0.18 -0.1,0.18 -0.11,0.17 -0.13,0.16 -0.13,0.16 -0.15,0.15 -0.15,0.15 -0.17,0.13 -0.18,0.13 -0.18,0.13 -0.2,0.11 -0.2,0.11 -0.21,0.1 -0.22,0.1 -0.23,0.09 -0.24,0.08 -0.24,0.07 -0.25,0.07 -0.25,0.05 -0.26,0.05 -0.27,0.05 -0.27,0.03 -0.28,0.03 -0.28,0.02 -0.28,0.01 h -0.29 c -1.51,0 -4.41,-0.07 -4.41,-2.18 0,-0.92 0.71,-1.35 1.32,-1.35 0.67,0 1.33,0.47 1.33,1.32 0,0.61 -0.35,0.98 -0.58,1.12 0.83,0.28 2.01,0.28 2.3,0.28 2.1,0 3.43,-1.17 3.43,-2.97 v -0.65 -0.74 -2.45 c 0,-2.73 -2.98,-2.98 -3.61,-2.98 -1.47,0 -2.87,0.76 -2.87,2.06 0,0.83 0.53,3.12 6.48,3.37 v 0.74 c -2.42,-0.13 -3.76,-0.19 -5.68,-0.86 -1.65,-0.58 -3.08,-1.63 -3.08,-3.25 0,-2.33 2.89,-2.89 4.87,-2.89 1.92,0 3.42,0.78 4.19,2.04 0.09,-0.87 0.67,-1.92 1.94,-1.92 0.18,0 3.01,0 3.01,2.39 v 1.38 h -1.05 v -1.31 c 0,-0.25 0,-1.35 -0.98,-1.35 -1,0 -1,1.1 -1,1.35 z"
           inkscape:connector-curvature="0"
           style="fill:#fffff6;stroke-width:0;fill-opacity:1" /><path
           id="path1250"
           d="m 965.41,432.29 -0.27,-0.01 -0.27,-0.02 -0.14,-0.01 -0.14,-0.01 h -0.14 l -0.15,-0.01 -0.14,-0.01 h -0.15 l -0.16,-0.01 h -0.15 l -0.17,-0.01 h -0.16 -0.18 -0.17 c -0.88,0 -1.9,0.01 -2.77,0.09 v -1.09 c 0.45,-0.05 0.47,-0.42 0.47,-0.47 0,-0.45 -0.25,-0.7 -0.94,-1.41 l -1.25,-1.18 c -1.14,1.09 -2.44,2.36 -2.44,2.61 0,0.42 0.55,0.45 0.64,0.45 v 1.09 c -1.01,-0.08 -2.96,-0.09 -3.09,-0.09 -0.98,0 -1.72,0 -2.76,0.09 v -1.09 h 0.48 c 1.56,0 1.59,-0.05 2.94,-1.39 l 2.93,-2.97 c -0.17,-0.16 -2.34,-2.34 -2.71,-2.67 -0.69,-0.64 -1.61,-1.49 -3.79,-1.52 v -1.09 c 0.72,0.05 1.43,0.09 2.39,0.09 0.88,0 1.9,-0.01 2.77,-0.09 v 1.09 c -0.37,0.05 -0.45,0.33 -0.45,0.47 0,0.44 0.36,0.8 0.45,0.91 0.25,0.26 1.92,1.89 2.06,2.04 0.88,-0.86 1.96,-1.9 2.57,-2.59 0.2,-0.25 0.23,-0.25 0.23,-0.37 0,-0.43 -0.55,-0.46 -0.66,-0.46 v -1.09 c 1.03,0.08 2.97,0.09 3.1,0.09 1,0 1.72,0 2.76,-0.09 v 1.09 h -0.47 c -1.37,0 -1.65,0.21 -1.95,0.41 -0.25,0.17 -3.14,3.15 -4.25,4.3 3.06,3.17 3.7,3.81 6.13,3.84 z"
           inkscape:connector-curvature="0"
           style="fill:#fffff6;stroke-width:0;fill-opacity:1" /><polyline
           id="polyline1252"
           points="707,418 1129.2,418 1129.2,420.04 707,420.04 "
           style="fill:#fffff6;fill-rule:nonzero;stroke-width:0;fill-opacity:1" /><path
           id="path1254"
           d="m 731.77,393.53 v 0.01 0.02 0.02 0.02 0.01 l -0.01,0.02 v 0.02 l -0.01,0.02 v 0.02 l -0.01,0.02 -0.01,0.02 -0.01,0.02 v 0.01 l -0.01,0.02 -0.02,0.02 -0.01,0.02 -0.01,0.01 -0.02,0.02 -0.01,0.02 -0.02,0.01 -0.02,0.02 -0.02,0.01 -0.02,0.01 -0.02,0.01 -0.02,0.01 -0.02,0.01 -0.03,0.01 h -0.01 l -0.02,0.01 h -0.01 -0.02 l -0.01,0.01 h -0.02 -0.01 -0.02 -0.01 -0.02 c -0.2,0 -0.23,-0.05 -0.69,-0.5 l -1.72,-1.98 c -1.31,1.86 -3.51,2.48 -5.64,2.48 -4.9,0 -9.26,-3.98 -9.26,-7.98 0,-0.52 0.11,-1.93 1.15,-3.21 1.18,-1.39 2.47,-1.7 4.85,-2.26 0.69,-0.17 2.44,-0.57 2.95,-0.71 1.11,-0.28 3.25,-1.04 3.25,-3.65 0,-2.81 -2.97,-6.13 -6.94,-6.13 -3.06,0 -6.76,1.08 -6.76,4.94 0,0.36 0.08,1.13 0.2,1.75 0.05,0.14 0.05,0.17 0.05,0.2 0,0.46 -0.42,0.46 -0.56,0.46 -0.49,0 -0.52,-0.07 -0.66,-0.69 l -1.78,-6.97 c -0.03,-0.14 -0.11,-0.36 -0.11,-0.53 0,-0.2 0.14,-0.42 0.48,-0.42 0.22,0 0.25,0.04 0.71,0.5 0.39,0.4 1.29,1.53 1.67,1.95 1.84,-2.03 4.56,-2.45 6.65,-2.45 5.27,0 9.52,4.53 9.52,8.64 0,1.54 -0.63,2.94 -1.39,3.73 -1.22,1.25 -1.75,1.39 -6.25,2.44 -0.72,0.17 -1.88,0.45 -2.19,0.56 -0.87,0.31 -2.33,1.19 -2.33,3.17 0,2.75 3.1,5.54 6.72,5.54 3.77,0 5.58,-2.13 5.58,-5.44 0,-0.46 -0.14,-1.25 -0.14,-1.56 0,-0.49 0.42,-0.49 0.59,-0.49 0.52,0 0.55,0.17 0.69,0.77 z"
           inkscape:connector-curvature="0"
           style="fill:#fffff6;stroke-width:0;fill-opacity:1" /><path
           id="path1256"
           d="m 755.32,378.61 0.03,0.14 0.04,0.14 0.02,0.07 0.02,0.07 0.03,0.07 0.03,0.07 0.03,0.07 0.04,0.07 0.04,0.07 0.04,0.07 0.05,0.06 0.06,0.07 0.06,0.06 0.06,0.07 0.08,0.06 0.08,0.06 0.08,0.05 0.09,0.06 0.1,0.05 0.11,0.05 0.12,0.05 0.06,0.02 0.06,0.02 0.07,0.02 0.07,0.02 0.07,0.02 0.07,0.01 0.07,0.02 0.08,0.02 0.08,0.01 0.08,0.01 0.09,0.02 0.09,0.01 0.09,0.01 0.09,0.01 0.1,0.01 h 0.1 l 0.1,0.01 h 0.1 c 0.19,0 0.65,0.03 0.65,0.71 0,0.09 -0.08,0.42 -0.43,0.42 -0.45,0 -0.97,-0.08 -1.42,-0.08 -0.44,0 -0.92,-0.02 -1.39,-0.02 -0.5,0 -0.97,0.02 -1.47,0.02 -0.45,0 -0.97,0.08 -1.42,0.08 -0.17,0 -0.59,0 -0.59,-0.71 0,-0.42 0.37,-0.42 0.62,-0.42 1.64,-0.01 1.73,-0.54 1.73,-0.97 0,-0.17 -0.04,-0.29 -0.07,-0.45 l -2.69,-10.7 -7.47,12.83 c -0.25,0.42 -0.3,0.42 -0.89,0.42 h -3.88 c -0.48,0 -0.85,0 -0.85,-0.71 0,-0.42 0.31,-0.42 0.92,-0.42 0.06,0 1.06,0 1.68,-0.09 l -3.26,-13 c -0.17,-0.67 -0.39,-1.63 -2.72,-1.67 -0.19,0 -0.61,-0.03 -0.61,-0.71 0,-0.22 0.19,-0.42 0.42,-0.42 0.44,0 0.97,0.08 1.42,0.08 0.47,0 0.94,0.02 1.41,0.02 0.5,0 0.99,-0.02 1.47,-0.02 0.45,0 0.99,-0.08 1.42,-0.08 0.33,0 0.61,0.17 0.61,0.7 0,0.43 -0.37,0.43 -0.66,0.43 -1.25,0.01 -1.71,0.34 -1.71,0.93 0,0.18 0.04,0.33 0.11,0.58 l 3.1,12.5 8.57,-14.69 c 0.25,-0.45 0.4,-0.45 0.67,-0.45 0.5,0 0.53,0.13 0.66,0.64 z"
           inkscape:connector-curvature="0"
           style="fill:#fffff6;stroke-width:0;fill-opacity:1" /><path
           id="path1258"
           d="m 775.82,395.62 -0.61,-0.44 -0.58,-0.47 -0.55,-0.47 -0.53,-0.49 -0.49,-0.5 -0.48,-0.51 -0.44,-0.53 -0.43,-0.53 -0.4,-0.54 -0.37,-0.55 -0.35,-0.56 -0.34,-0.56 -0.3,-0.57 -0.29,-0.57 -0.27,-0.58 -0.25,-0.58 -0.22,-0.58 -0.21,-0.58 -0.19,-0.59 -0.18,-0.58 -0.15,-0.58 -0.14,-0.58 -0.12,-0.57 -0.11,-0.57 -0.1,-0.57 -0.07,-0.56 -0.07,-0.55 -0.05,-0.54 -0.04,-0.54 -0.03,-0.53 -0.01,-0.51 -0.01,-0.51 c 0,-4.92 1.47,-12.55 8.38,-17.42 0.28,0 0.68,0 0.68,0.4 0,0.22 -0.09,0.29 -0.34,0.54 -4.64,4.18 -6.34,10.11 -6.34,16.45 0,9.41 3.59,14 6.45,16.58 0.14,0.14 0.23,0.25 0.23,0.42 0,0.42 -0.4,0.42 -0.68,0.42 z"
           inkscape:connector-curvature="0"
           style="fill:#fffff6;stroke-width:0;fill-opacity:1" /><path
           id="path1260"
           d="m 790.71,391.64 v 0.04 0.04 0.05 0.04 0.03 0.04 0.04 0.03 l -0.01,0.04 v 0.03 0.03 0.03 0.03 l -0.01,0.03 v 0.03 0.02 l -0.01,0.03 v 0.02 l -0.01,0.03 v 0.02 l -0.02,0.04 -0.01,0.04 -0.02,0.03 -0.02,0.03 -0.02,0.03 -0.02,0.03 -0.03,0.02 -0.03,0.02 -0.04,0.02 -0.03,0.01 -0.04,0.01 -0.05,0.01 -0.02,0.01 h -0.03 l -0.02,0.01 h -0.03 -0.02 l -0.03,0.01 h -0.03 -0.03 -0.04 l -0.03,0.01 h -0.03 -0.04 -0.04 -0.03 -0.04 -0.04 -0.04 -0.05 -0.04 -0.05 c -2.23,-2.2 -5.39,-2.23 -6.82,-2.23 v -1.25 c 0.84,0 3.14,0 5.04,0.97 v -17.77 c 0,-1.16 0,-1.61 -3.48,-1.61 h -1.31 v -1.25 c 0.62,0.03 4.9,0.14 6.2,0.14 1.08,0 5.47,-0.11 6.23,-0.14 v 1.25 h -1.32 c -3.49,0 -3.49,0.45 -3.49,1.61 z"
           inkscape:connector-curvature="0"
           style="fill:#fffff6;stroke-width:0;fill-opacity:1" /><path
           id="path1262"
           d="m 801.98,395.62 h -0.03 -0.02 -0.03 -0.02 -0.03 -0.03 -0.03 l -0.02,-0.01 h -0.03 -0.03 l -0.03,-0.01 h -0.03 l -0.02,-0.01 h -0.03 l -0.03,-0.01 -0.02,-0.01 -0.03,-0.01 -0.02,-0.01 -0.03,-0.02 -0.02,-0.01 -0.02,-0.02 -0.02,-0.02 -0.02,-0.02 -0.01,-0.01 -0.01,-0.01 v -0.01 l -0.01,-0.01 -0.01,-0.01 v -0.02 l -0.01,-0.01 -0.01,-0.01 v -0.02 l -0.01,-0.01 v -0.02 -0.01 l -0.01,-0.02 v -0.02 -0.01 -0.02 -0.02 l -0.01,-0.02 c 0,-0.17 0.11,-0.28 0.32,-0.53 3,-2.75 6.34,-7.46 6.34,-16.44 0,-7.28 -2.26,-12.8 -6.03,-16.2 -0.58,-0.6 -0.63,-0.63 -0.63,-0.82 0,-0.17 0.11,-0.4 0.46,-0.4 0.42,0 3.73,2.3 6.03,6.65 1.53,2.9 2.55,6.66 2.55,10.74 0,4.91 -1.47,12.53 -8.36,17.42 z"
           inkscape:connector-curvature="0"
           style="fill:#fffff6;stroke-width:0;fill-opacity:1" /><path
           id="path1264"
           d="m 826.81,395.62 -0.61,-0.44 -0.58,-0.47 -0.55,-0.47 -0.52,-0.49 -0.5,-0.5 -0.47,-0.51 -0.45,-0.53 -0.42,-0.53 -0.4,-0.54 -0.38,-0.55 -0.35,-0.56 -0.33,-0.56 -0.31,-0.57 -0.29,-0.57 -0.27,-0.58 -0.24,-0.58 -0.23,-0.58 -0.21,-0.58 -0.19,-0.59 -0.17,-0.58 -0.16,-0.58 -0.14,-0.58 -0.12,-0.57 -0.11,-0.57 -0.09,-0.57 -0.08,-0.56 -0.07,-0.55 -0.05,-0.54 -0.04,-0.54 -0.02,-0.53 -0.02,-0.51 -0.01,-0.51 c 0,-4.92 1.47,-12.55 8.38,-17.42 0.28,0 0.69,0 0.69,0.4 0,0.22 -0.1,0.29 -0.35,0.54 -4.64,4.18 -6.34,10.11 -6.34,16.45 0,9.41 3.59,14 6.45,16.58 0.14,0.14 0.24,0.25 0.24,0.42 0,0.42 -0.41,0.42 -0.69,0.42 z"
           inkscape:connector-curvature="0"
           style="fill:#fffff6;stroke-width:0;fill-opacity:1" /><path
           id="path1266"
           d="m 837.2,394.29 v 0.05 0.05 0.06 0.05 0.11 l -0.01,0.05 v 0.06 l -0.01,0.05 v 0.06 l -0.01,0.06 -0.01,0.05 -0.01,0.05 -0.02,0.06 -0.01,0.05 -0.02,0.05 -0.02,0.05 -0.02,0.05 -0.03,0.04 -0.03,0.05 -0.03,0.04 -0.04,0.04 -0.03,0.03 -0.02,0.02 -0.03,0.02 -0.02,0.01 -0.02,0.02 -0.03,0.01 -0.02,0.01 -0.03,0.01 -0.02,0.02 -0.03,0.01 -0.03,0.01 h -0.03 l -0.03,0.01 -0.04,0.01 h -0.03 l -0.03,0.01 h -0.04 -0.04 -0.03 c -0.88,0 -0.88,-0.87 -0.88,-1.5 v -31.81 c 0,-0.64 0,-1.5 0.88,-1.5 0.82,0 0.82,0.8 0.82,1.31 z"
           inkscape:connector-curvature="0"
           style="fill:#fffff6;stroke-width:0;fill-opacity:1" /><path
           id="path1268"
           d="m 844.91,394.12 v 0.06 0.06 l -0.01,0.12 v 0.13 l -0.01,0.13 v 0.06 l -0.01,0.07 -0.01,0.06 -0.01,0.06 -0.01,0.06 -0.02,0.06 -0.01,0.06 -0.02,0.06 -0.03,0.05 -0.02,0.05 -0.03,0.05 -0.03,0.05 -0.03,0.05 -0.04,0.04 -0.04,0.04 -0.04,0.03 -0.03,0.02 -0.02,0.02 -0.03,0.01 -0.02,0.02 -0.03,0.01 -0.03,0.01 -0.03,0.01 -0.03,0.01 -0.03,0.01 -0.04,0.01 -0.03,0.01 h -0.03 l -0.04,0.01 h -0.04 -0.04 -0.04 c -0.83,0 -0.83,-0.81 -0.83,-1.33 v -32.17 c 0,-0.51 0,-1.31 0.83,-1.31 0.88,0 0.88,0.86 0.88,1.5 z"
           inkscape:connector-curvature="0"
           style="fill:#fffff6;stroke-width:0;fill-opacity:1" /><path
           id="path1270"
           d="m 859.1,373.17 -0.03,-0.11 -0.04,-0.12 -0.05,-0.12 -0.04,-0.12 -0.06,-0.12 -0.06,-0.13 -0.06,-0.13 -0.07,-0.13 -0.07,-0.12 -0.07,-0.13 -0.08,-0.13 -0.09,-0.13 -0.09,-0.12 -0.09,-0.12 -0.1,-0.13 -0.1,-0.11 -0.1,-0.12 -0.11,-0.11 -0.12,-0.1 -0.12,-0.1 -0.12,-0.1 -0.12,-0.09 -0.13,-0.08 -0.14,-0.08 -0.13,-0.07 -0.15,-0.06 -0.14,-0.06 -0.15,-0.04 -0.15,-0.04 -0.16,-0.02 -0.16,-0.02 h -0.16 c -0.11,0 -1.16,0 -1.89,0.48 1.43,0.45 1.53,1.72 1.53,1.92 0,0.77 -0.6,1.3 -1.39,1.3 -0.97,0 -1.99,-0.85 -1.99,-2.14 0,-1.74 1.95,-2.53 3.66,-2.53 1.61,0 3.03,1 3.9,2.47 0.83,-1.85 2.75,-2.47 4.14,-2.47 4.02,0 6.15,4.34 6.15,5.32 0,0.46 -0.46,0.46 -0.57,0.46 -0.48,0 -0.51,-0.17 -0.65,-0.6 -0.74,-2.4 -2.83,-4.21 -4.78,-4.21 -1.4,0 -2.13,0.93 -2.13,2.26 0,0.91 0.84,4.08 1.81,7.95 0.71,2.68 2.27,3.55 3.42,3.55 0.07,0 1.15,0 1.88,-0.48 -1.11,-0.32 -1.53,-1.3 -1.53,-1.93 0,-0.76 0.59,-1.28 1.39,-1.28 0.81,0 1.95,0.66 1.95,2.13 0,1.95 -2.23,2.53 -3.62,2.53 -1.74,0 -3.14,-1.14 -3.91,-2.47 -0.62,1.44 -2.22,2.47 -4.17,2.47 -3.91,0 -6.14,-4.28 -6.14,-5.33 0,-0.45 0.5,-0.45 0.59,-0.45 0.46,0 0.49,0.14 0.67,0.59 0.86,2.72 3.07,4.22 4.77,4.22 1.16,0 2.09,-0.62 2.09,-2.3 0,-0.7 -0.42,-2.43 -0.73,-3.62 z"
           inkscape:connector-curvature="0"
           style="fill:#fffff6;stroke-width:0;fill-opacity:1" /><path
           id="path1272"
           d="m 880.16,394.29 v 0.05 0.05 0.06 0.05 l -0.01,0.11 v 0.05 0.06 l -0.01,0.05 -0.01,0.06 v 0.06 l -0.01,0.05 -0.02,0.05 -0.01,0.06 -0.02,0.05 -0.01,0.05 -0.02,0.05 -0.03,0.05 -0.02,0.04 -0.03,0.05 -0.03,0.04 -0.04,0.04 -0.04,0.03 -0.02,0.02 -0.02,0.02 -0.02,0.01 -0.02,0.02 -0.03,0.01 -0.02,0.01 -0.03,0.01 -0.03,0.02 -0.03,0.01 -0.02,0.01 h -0.03 l -0.04,0.01 -0.03,0.01 h -0.03 l -0.04,0.01 h -0.03 -0.04 -0.04 c -0.87,0 -0.87,-0.87 -0.87,-1.5 v -31.81 c 0,-0.64 0,-1.5 0.87,-1.5 0.83,0 0.83,0.8 0.83,1.31 z"
           inkscape:connector-curvature="0"
           style="fill:#fffff6;stroke-width:0;fill-opacity:1" /><path
           id="path1274"
           d="m 887.86,394.12 v 0.06 0.06 0.12 0.13 l -0.01,0.13 -0.01,0.06 v 0.07 l -0.01,0.06 -0.01,0.06 -0.02,0.06 -0.01,0.06 -0.02,0.06 -0.02,0.06 -0.02,0.05 -0.02,0.05 -0.03,0.05 -0.03,0.05 -0.03,0.05 -0.04,0.04 -0.04,0.04 -0.05,0.03 -0.02,0.02 -0.02,0.02 -0.03,0.01 -0.03,0.02 -0.02,0.01 -0.03,0.01 -0.03,0.01 -0.03,0.01 -0.04,0.01 -0.03,0.01 -0.03,0.01 h -0.04 l -0.03,0.01 h -0.04 -0.04 -0.04 c -0.83,0 -0.83,-0.81 -0.83,-1.33 v -32.17 c 0,-0.51 0,-1.31 0.83,-1.31 0.87,0 0.87,0.86 0.87,1.5 z"
           inkscape:connector-curvature="0"
           style="fill:#fffff6;stroke-width:0;fill-opacity:1" /><path
           id="path1276"
           d="m 908.07,386.29 h -1.05 c -0.07,-0.48 -0.32,-2.01 -0.72,-2.26 -0.2,-0.16 -2.29,-0.16 -2.67,-0.16 h -4.87 c 1.64,1.22 3.48,2.61 4.98,3.61 2.24,1.55 4.33,3 4.33,5.64 0,3.19 -3.02,4.95 -6.58,4.95 -3.36,0 -5.83,-1.95 -5.83,-4.39 0,-1.29 1.1,-1.51 1.46,-1.51 0.67,0 1.47,0.45 1.47,1.47 0,0.89 -0.66,1.39 -1.43,1.47 0.69,1.12 2.14,1.87 3.82,1.87 2.4,0 4.42,-1.45 4.42,-3.89 0,-2.09 -1.44,-3.69 -3.36,-5.31 l -6.08,-5.16 c -0.25,-0.22 -0.26,-0.22 -0.3,-0.39 v -0.75 h 11.58 z"
           inkscape:connector-curvature="0"
           style="fill:#fffff6;stroke-width:0;fill-opacity:1" /><path
           id="path1278"
           d="m 908.07,363.37 h -1.05 c -0.07,-0.48 -0.32,-2.01 -0.72,-2.26 -0.2,-0.16 -2.29,-0.16 -2.67,-0.16 h -4.87 c 1.64,1.22 3.48,2.61 4.98,3.61 2.24,1.55 4.33,3 4.33,5.64 0,3.19 -3.02,4.95 -6.58,4.95 -3.36,0 -5.83,-1.95 -5.83,-4.39 0,-1.3 1.1,-1.51 1.46,-1.51 0.67,0 1.47,0.45 1.47,1.46 0,0.9 -0.66,1.4 -1.43,1.47 0.69,1.13 2.14,1.88 3.82,1.88 2.4,0 4.42,-1.45 4.42,-3.89 0,-2.1 -1.44,-3.69 -3.36,-5.31 l -6.08,-5.16 c -0.25,-0.22 -0.26,-0.22 -0.3,-0.39 v -0.75 h 11.58 z"
           inkscape:connector-curvature="0"
           style="fill:#fffff6;stroke-width:0;fill-opacity:1" /><path
           id="path1280"
           d="m 928.98,377.36 h 10.66 c 0.45,0 1.28,0 1.28,0.84 0,0.86 -0.8,0.86 -1.28,0.86 h -10.66 v 10.7 c 0,0.45 0,1.28 -0.84,1.28 -0.88,0 -0.88,-0.79 -0.88,-1.28 v -10.7 h -10.69 c -0.45,0 -1.29,0 -1.29,-0.83 0,-0.87 0.79,-0.87 1.29,-0.87 h 10.69 v -10.71 c 0,-0.45 0,-1.28 0.84,-1.28 0.88,0 0.88,0.8 0.88,1.28 z"
           inkscape:connector-curvature="0"
           style="fill:#fffff6;stroke-width:0;fill-opacity:1" /><path
           id="path1282"
           d="m 949.3,372.54 0.16,0.17 0.17,0.17 0.16,0.16 0.17,0.17 0.18,0.17 0.1,0.09 0.1,0.09 0.1,0.1 0.1,0.1 0.11,0.1 0.12,0.11 0.12,0.11 0.13,0.11 0.14,0.12 0.14,0.13 0.16,0.13 0.15,0.13 0.17,0.15 0.18,0.15 0.19,0.15 0.2,0.17 0.21,0.17 0.22,0.18 0.23,0.19 0.24,0.2 0.26,0.2 0.27,0.22 c 0.74,0.59 3.34,2.69 4.36,3.66 2.13,2.09 3.45,3.87 3.45,4.29 0,0.41 -0.45,0.41 -0.59,0.41 -0.31,0 -0.42,-0.06 -0.59,-0.34 -1.08,-1.6 -1.82,-2.13 -2.64,-2.13 -0.43,0 -0.96,0.03 -2,1.05 -1.18,1.19 -1.94,1.42 -2.75,1.42 -2.79,0 -4.68,-3.03 -4.68,-4.06 0,-0.33 0.36,-0.42 0.6,-0.42 0.42,0 0.5,0.09 0.62,0.48 0.53,1.22 2.49,1.3 3.05,1.3 0.8,0 1.7,-0.22 2.19,-0.33 1.92,-0.41 2.15,-0.41 3.03,-0.41 -0.91,-0.95 -1.53,-1.58 -4.85,-4.22 -2.71,-2.15 -3.65,-3.03 -4.31,-3.73 -2.09,-2.05 -3.11,-3.58 -3.11,-3.91 0,-0.4 0.46,-0.4 0.6,-0.4 0.34,0 0.42,0.06 0.59,0.34 0.94,1.33 2.02,2.13 3.2,2.13 0.43,0 0.94,-0.04 1.88,-0.91 1.09,-1.05 1.78,-1.56 2.9,-1.56 3.72,0 6.07,4.22 6.07,5.39 0,0.42 -0.39,0.45 -0.6,0.45 -0.42,0 -0.5,-0.17 -0.62,-0.55 -0.67,-1.75 -2.72,-2.57 -4.44,-2.57 -0.8,0 -1.67,0.17 -2.53,0.37 -1.61,0.34 -1.89,0.34 -2.52,0.34 -0.07,0 -0.59,0 -0.79,-0.03 z"
           inkscape:connector-curvature="0"
           style="fill:#fffff6;stroke-width:0;fill-opacity:1" /><path
           id="path1284"
           d="m 978.63,384.25 h -1.04 c -0.08,-0.48 -0.33,-2.01 -0.72,-2.26 -0.21,-0.16 -2.3,-0.16 -2.67,-0.16 h -4.88 c 1.64,1.22 3.48,2.61 4.98,3.61 2.24,1.55 4.33,3 4.33,5.64 0,3.19 -3.01,4.96 -6.58,4.96 -3.35,0 -5.82,-1.96 -5.82,-4.4 0,-1.29 1.09,-1.51 1.45,-1.51 0.67,0 1.47,0.45 1.47,1.47 0,0.89 -0.66,1.39 -1.42,1.47 0.68,1.12 2.14,1.87 3.81,1.87 2.41,0 4.42,-1.45 4.42,-3.89 0,-2.09 -1.44,-3.69 -3.36,-5.31 l -6.08,-5.16 c -0.25,-0.22 -0.26,-0.22 -0.29,-0.39 v -0.75 h 11.57 z"
           inkscape:connector-curvature="0"
           style="fill:#fffff6;stroke-width:0;fill-opacity:1" /><path
           id="path1286"
           d="m 986.13,367.04 v 0.14 l -0.01,0.14 -0.01,0.13 -0.01,0.13 -0.01,0.13 -0.02,0.12 -0.02,0.12 -0.02,0.12 -0.03,0.11 -0.03,0.11 -0.03,0.11 -0.04,0.1 -0.04,0.1 -0.04,0.1 -0.08,0.18 -0.1,0.17 -0.11,0.16 -0.11,0.15 -0.13,0.14 -0.13,0.12 -0.13,0.12 -0.15,0.1 -0.15,0.1 -0.16,0.09 -0.16,0.08 -0.16,0.07 -0.17,0.06 -0.17,0.05 -0.18,0.05 -0.18,0.05 -0.18,0.03 -0.18,0.03 -0.18,0.03 -0.18,0.02 -0.19,0.01 -0.18,0.01 -0.18,0.01 -0.35,0.01 c -2.44,0 -3.86,-1.22 -4.57,-2.33 -0.62,2.29 -3.15,2.33 -4.08,2.33 -2.56,0 -4.01,-1.38 -4.63,-2.46 v 2.46 l -4.08,-0.29 v -1.09 c 1.84,0 2.06,-0.17 2.06,-1.39 v -6.16 c 0,-0.78 0,-1 -1.63,-1 h -0.43 v -1.09 c 1.06,0.08 2.11,0.09 3.18,0.09 1.05,0 2.11,-0.01 3.16,-0.09 v 1.09 h -0.44 c -1.62,0 -1.62,0.22 -1.62,1 v 4.33 c 0,2.77 2.55,3.77 4.15,3.77 1.83,0 2.27,-1.02 2.27,-2.64 v -5.46 c 0,-0.78 0,-1 -1.61,-1 h -0.45 v -1.09 c 1.07,0.08 2.11,0.09 3.19,0.09 1.04,0 2.12,-0.01 3.15,-0.09 v 1.09 h -0.44 c -1.62,0 -1.62,0.22 -1.62,1 v 4.33 c 0,2.77 2.54,3.77 4.16,3.77 1.82,0 2.26,-1.02 2.26,-2.64 v -5.46 c 0,-0.78 0,-1 -1.61,-1 h -0.45 v -1.09 c 1.08,0.08 2.12,0.09 3.18,0.09 1.05,0 2.13,-0.01 3.18,-0.09 v 1.09 h -0.46 c -1.62,0 -1.62,0.22 -1.62,1 z"
           inkscape:connector-curvature="0"
           style="fill:#fffff6;stroke-width:0;fill-opacity:1" /><path
           id="path1288"
           d="m 1002.9,366.93 v 0.22 0.21 l -0.1,0.21 v 0.2 l -0.1,0.2 v 0.19 l -0.1,0.18 -0.1,0.18 -0.1,0.17 -0.2,0.16 -0.1,0.16 -0.2,0.15 -0.1,0.15 -0.2,0.13 -0.2,0.13 -0.1,0.13 -0.2,0.11 -0.2,0.11 -0.2,0.1 -0.3,0.1 -0.2,0.09 -0.23,0.08 -0.24,0.07 -0.25,0.07 -0.25,0.05 -0.26,0.05 -0.27,0.05 -0.27,0.03 -0.28,0.03 -0.28,0.02 -0.28,0.01 -0.29,0.01 c -1.52,0 -4.4,-0.08 -4.4,-2.19 0,-0.92 0.7,-1.35 1.31,-1.35 0.67,0 1.32,0.47 1.32,1.32 0,0.61 -0.34,0.98 -0.57,1.12 0.82,0.28 2.01,0.28 2.29,0.28 2.11,0 3.45,-1.17 3.45,-2.97 v -0.65 -0.74 -2.45 c 0,-2.73 -2.99,-2.98 -3.62,-2.98 -1.47,0 -2.87,0.76 -2.87,2.06 0,0.83 0.53,3.12 6.49,3.37 v 0.74 c -2.43,-0.13 -3.77,-0.19 -5.7,-0.86 -1.64,-0.58 -3.07,-1.63 -3.07,-3.25 0,-2.33 2.89,-2.89 4.87,-2.89 1.92,0 3.4,0.78 4.2,2.05 0.1,-0.88 0.7,-1.93 1.9,-1.93 0.2,0 3,0 3,2.39 v 1.38 h -1 v -1.31 c 0,-0.25 0,-1.35 -1,-1.35 -1,0 -1,1.1 -1,1.35 z"
           inkscape:connector-curvature="0"
           style="fill:#fffff6;stroke-width:0;fill-opacity:1" /><path
           id="path1290"
           d="m 1022.8,370.25 -0.3,-0.01 -0.3,-0.02 -0.1,-0.01 -0.1,-0.01 h -0.2 l -0.1,-0.01 -0.2,-0.01 h -0.1 l -0.2,-0.01 h -0.1 l -0.2,-0.01 h -0.2 -0.1 -0.2 c -0.9,0 -1.9,0.02 -2.8,0.09 v -1.09 c 0.5,-0.05 0.5,-0.42 0.5,-0.47 0,-0.45 -0.3,-0.7 -1,-1.4 l -1.2,-1.19 c -1.1,1.09 -2.4,2.36 -2.4,2.61 0,0.42 0.5,0.45 0.6,0.45 v 1.09 c -1,-0.07 -3,-0.09 -3.1,-0.09 -1,0 -1.7,0 -2.8,0.09 v -1.09 h 0.5 c 1.6,0 1.6,-0.05 3,-1.39 l 2.9,-2.97 c -0.2,-0.16 -2.4,-2.34 -2.7,-2.67 -0.7,-0.64 -1.6,-1.49 -3.8,-1.52 v -1.09 c 0.7,0.05 1.4,0.09 2.4,0.09 0.9,0 1.9,-0.01 2.7,-0.09 v 1.09 c -0.3,0.05 -0.4,0.33 -0.4,0.47 0,0.44 0.4,0.8 0.4,0.91 0.3,0.26 2,1.89 2.1,2.05 0.9,-0.86 2,-1.91 2.6,-2.6 0.2,-0.25 0.2,-0.25 0.2,-0.37 0,-0.43 -0.5,-0.46 -0.6,-0.46 v -1.09 c 1,0.08 2.9,0.09 3,0.09 1,0 1.8,0 2.8,-0.09 v 1.09 h -0.5 c -1.3,0 -1.6,0.21 -1.9,0.41 -0.3,0.17 -3.1,3.16 -4.3,4.3 3.1,3.17 3.7,3.81 6.2,3.84 z"
           inkscape:connector-curvature="0"
           style="fill:#fffff6;stroke-width:0;fill-opacity:1" /><path
           id="path1292"
           d="m 1030.2,395.62 v 0 0 h -0.1 v 0 0 0 h -0.1 v -0.01 0 0 l -0.1,-0.01 v 0 -0.01 h -0.1 v -0.01 -0.01 -0.01 l -0.1,-0.01 v -0.02 -0.01 -0.02 -0.02 l -0.1,-0.02 v -0.01 -0.01 -0.01 -0.01 -0.01 -0.02 -0.01 -0.01 -0.02 -0.01 -0.02 -0.01 -0.02 -0.02 -0.01 -0.02 -0.02 -0.02 c 0,-0.17 0.1,-0.28 0.3,-0.53 3,-2.75 6.3,-7.46 6.3,-16.44 0,-7.28 -2.3,-12.8 -6,-16.2 -0.6,-0.6 -0.6,-0.63 -0.6,-0.82 0,-0.17 0.1,-0.4 0.4,-0.4 0.4,0 3.7,2.3 6,6.65 1.6,2.9 2.6,6.66 2.6,10.74 0,4.91 -1.5,12.53 -8.4,17.42 z"
           inkscape:connector-curvature="0"
           style="fill:#fffff6;stroke-width:0;fill-opacity:1" /><path
           id="path1294"
           d="m 1072.4,412.81 v 0.14 0.14 l 0.1,0.07 v 0.07 0.07 0.07 l 0.1,0.07 v 0.07 0.07 l 0.1,0.06 v 0.07 l 0.1,0.07 0.1,0.06 v 0.07 l 0.1,0.06 0.1,0.06 0.1,0.05 v 0.06 l 0.1,0.05 0.2,0.05 0.1,0.05 v 0.02 l 0.1,0.02 0.1,0.02 v 0.02 l 0.1,0.02 0.1,0.01 v 0.02 l 0.1,0.02 0.1,0.01 0.1,0.01 0.1,0.02 0.1,0.01 v 0.01 l 0.1,0.01 h 0.1 l 0.1,0.01 0.1,0.01 h 0.1 c 0.2,0 0.7,0.03 0.7,0.7 0,0.1 -0.1,0.43 -0.4,0.43 -0.5,0 -1,-0.08 -1.5,-0.08 -0.4,0 -0.9,-0.02 -1.4,-0.02 -0.5,0 -0.9,0.02 -1.4,0.02 -0.5,0 -1,0.08 -1.4,0.08 -0.2,0 -0.6,0 -0.6,-0.71 0,-0.42 0.3,-0.42 0.6,-0.42 1.6,-0.01 1.7,-0.55 1.7,-0.97 0,-0.17 0,-0.29 -0.1,-0.45 l -2.6,-10.7 -7.5,12.82 c -0.3,0.43 -0.3,0.43 -0.9,0.43 h -3.9 c -0.5,0 -0.8,0 -0.8,-0.71 0,-0.42 0.3,-0.42 0.9,-0.42 0,0 1,0 1.7,-0.09 l -3.3,-13 c -0.2,-0.67 -0.4,-1.63 -2.7,-1.67 -0.2,0 -0.6,-0.04 -0.6,-0.71 0,-0.22 0.2,-0.42 0.4,-0.42 0.4,0 1,0.08 1.4,0.08 0.5,0 1,0.01 1.4,0.01 0.5,0 1,-0.01 1.5,-0.01 0.5,0 1,-0.08 1.4,-0.08 0.3,0 0.6,0.17 0.6,0.7 0,0.43 -0.3,0.43 -0.6,0.43 -1.3,0.01 -1.7,0.34 -1.7,0.93 0,0.18 0,0.33 0.1,0.58 l 3.1,12.5 8.5,-14.69 c 0.3,-0.45 0.4,-0.45 0.7,-0.45 0.5,0 0.5,0.13 0.7,0.64 z"
           inkscape:connector-curvature="0"
           style="fill:#fffff6;stroke-width:0;fill-opacity:1" /><path
           id="path1296"
           d="m 1091.6,404.17 h 8.6 c 0.4,0 1,0 1,0.71 0,0.68 -0.6,0.68 -1,0.68 h -8.6 v 8.67 c 0,0.35 0,1.02 -0.7,1.02 -0.7,0 -0.7,-0.67 -0.7,-1.02 v -8.67 h -8.7 c -0.3,0 -1,0 -1,-0.68 0,-0.71 0.7,-0.71 1,-0.71 h 8.7 v -8.67 c 0,-0.34 0,-1.02 0.7,-1.02 0.7,0 0.7,0.68 0.7,1.02 z"
           inkscape:connector-curvature="0"
           style="fill:#fffff6;stroke-width:0;fill-opacity:1" /><path
           id="path1298"
           d="m 1113.6,414.48 v 0.04 0.03 0.03 0.04 0.03 0.03 0.02 0.03 0.03 0.02 l -0.1,0.03 v 0.02 0.02 0.03 0.02 0.02 0.02 0.02 0.03 0.03 0.03 0.03 0.02 l -0.1,0.02 v 0.02 0.02 0.01 l -0.1,0.01 v 0.01 0.01 l -0.1,0.01 v 0.01 0 h -0.1 v 0 0.01 0 h -0.1 v 0 0 0 h -0.1 v 0 0 h -0.1 v 0 0 h -0.1 v 0 0 c -1.8,-1.59 -4.6,-1.59 -5.1,-1.59 h -0.4 v -1.09 h 0.4 c 0.6,0 2.2,0.06 3.7,0.68 v -12.45 c 0,-0.76 0,-1.05 -2.7,-1.05 h -1.2 v -1.09 c 1.4,0.09 3.6,0.09 5,0.09 1.5,0 3.7,0 5,-0.09 v 1.09 h -1.2 c -2.6,0 -2.6,0.29 -2.6,1.05 z"
           inkscape:connector-curvature="0"
           style="fill:#fffff6;stroke-width:0;fill-opacity:1" /><polyline
           id="polyline1300"
           points="1049,392 1121.1,392 1121.1,393.32 1049,393.32 "
           style="fill:#fffff6;fill-rule:nonzero;stroke-width:0;fill-opacity:1" /><path
           id="path1302"
           d="m 1090.8,378.01 h -1 c -0.1,-0.48 -0.3,-2.01 -0.7,-2.26 -0.2,-0.16 -2.3,-0.16 -2.7,-0.16 h -4.9 c 1.7,1.22 3.5,2.61 5,3.61 2.2,1.55 4.3,3 4.3,5.64 0,3.19 -3,4.95 -6.6,4.95 -3.3,0 -5.8,-1.95 -5.8,-4.39 0,-1.29 1.1,-1.51 1.5,-1.51 0.7,0 1.4,0.45 1.4,1.47 0,0.89 -0.6,1.39 -1.4,1.46 0.7,1.13 2.2,1.88 3.8,1.88 2.4,0 4.5,-1.45 4.5,-3.89 0,-2.1 -1.5,-3.69 -3.4,-5.31 l -6.1,-5.16 c -0.2,-0.22 -0.2,-0.22 -0.3,-0.39 v -0.75 h 11.6 z"
           inkscape:connector-curvature="0"
           style="fill:#fffff6;stroke-width:0;fill-opacity:1" /></g>    </g>
  </g>
</svg>
